<svg xmlns="http://www.w3.org/2000/svg" width="24" height="24" fill="none" viewBox="0 0 24 24">
    <path fill="currentColor"
        d="M11.052 5.744a1.21 1.21 0 0 1 1.896 0l.096.14 2.346 4.02 3.054-2.776.09-.075c.944-.727 2.328.127 2.05 1.33l-2.19 9.491a1.667 1.667 0 0 1-1.624 1.292H7.23c-.777 0-1.45-.535-1.625-1.292l-2.19-9.492c-.277-1.202 1.107-2.056 2.05-1.329l.09.075L8.61 9.905l2.347-4.02.096-.141Zm-1.327 5.228a1.208 1.208 0 0 1-1.857.285L5.02 8.667l2.047 8.87a.167.167 0 0 0 .163.13h9.541a.167.167 0 0 0 .163-.13l2.046-8.87-2.847 2.59a1.208 1.208 0 0 1-1.857-.285L12 7.072l-2.275 3.9Z" />
</svg>