<svg xmlns="http://www.w3.org/2000/svg" width="107" height="24" fill="none" viewBox="0 0 107 24">
    <path fill="#F97415" d="M14.16 12.003a2.16 2.16 0 1 0-4.32 0 2.16 2.16 0 0 0 4.32 0Z" />
    <path fill="#F97415"
        d="M12.004 22.797v-4.32a6.486 6.486 0 0 0 6.479-6.479 6.486 6.486 0 0 0-6.48-6.479A6.486 6.486 0 0 0 5.525 12H1.205c0-5.955 4.844-10.8 10.799-10.8C17.957 1.2 22.801 6.045 22.801 12c0 5.954-4.844 10.798-10.798 10.798Z" />
    <path fill="#F97415"
        d="m9.844 14.16-8.639 2.891 3.963 1.786L6.953 22.8l2.89-8.64ZM100.768 12.09v4.958h-1.994V8.587h1.906v1.437h.099a2.42 2.42 0 0 1 .931-1.129c.43-.279.961-.418 1.592-.418.584 0 1.093.124 1.526.374.437.25.775.612 1.014 1.085.242.474.361 1.049.358 1.724v5.388h-1.994v-5.08c0-.565-.147-1.007-.441-1.327-.29-.32-.692-.479-1.206-.479-.349 0-.659.077-.931.231a1.61 1.61 0 0 0-.634.656c-.15.286-.226.633-.226 1.041ZM94.728 17.048V8.587h1.995v8.46h-1.995Zm1.003-9.662c-.316 0-.588-.105-.815-.314a1.012 1.012 0 0 1-.342-.766c0-.3.114-.556.342-.765.227-.213.5-.32.815-.32.32 0 .591.107.815.32a1 1 0 0 1 .342.765c0 .298-.114.553-.342.766a1.15 1.15 0 0 1-.815.314ZM89.4 14.833v-4.704h-1.2V8.586h1.2V6.56h1.994v2.027h1.67v1.543h-1.67v4.373c0 .268.04.474.121.617.085.14.195.235.33.287.137.051.287.077.453.077.124 0 .238-.01.341-.028.107-.018.187-.034.242-.05l.336 1.56a4.465 4.465 0 0 1-.457.12c-.195.045-.433.07-.716.078-.5.015-.95-.06-1.35-.226-.4-.169-.717-.43-.952-.782-.232-.353-.346-.793-.342-1.322ZM79.144 20.22V8.588h1.96v1.399h.116c.103-.206.248-.424.435-.656a2.31 2.31 0 0 1 .76-.6c.32-.169.728-.253 1.223-.253.654 0 1.243.167 1.769.5.528.331.947.822 1.255 1.472.313.646.469 1.44.469 2.38 0 .928-.153 1.718-.457 2.368-.305.65-.72 1.146-1.245 1.487a3.201 3.201 0 0 1-1.785.512c-.485 0-.887-.08-1.206-.242a2.454 2.454 0 0 1-.772-.584 3.782 3.782 0 0 1-.446-.655h-.082v4.506h-1.994Zm1.955-7.403c0 .547.077 1.027.231 1.438.158.411.384.732.678.964.297.228.657.341 1.08.341.44 0 .81-.117 1.107-.352.297-.239.521-.564.672-.975.154-.415.231-.887.231-1.416 0-.525-.075-.991-.226-1.399-.15-.408-.374-.727-.672-.958-.297-.232-.668-.347-1.112-.347-.426 0-.788.112-1.086.336-.297.224-.523.538-.677.941-.15.404-.226.88-.226 1.427ZM77.3 11.407c0 1.216-.228 2.257-.684 3.124-.451.863-1.068 1.524-1.85 1.983-.779.459-1.662.688-2.65.688s-1.873-.23-2.655-.688c-.779-.463-1.395-1.126-1.85-1.989-.453-.867-.678-1.906-.678-3.118 0-1.215.225-2.254.677-3.117.456-.867 1.072-1.53 1.851-1.989.782-.459 1.667-.688 2.655-.688.988 0 1.871.23 2.65.688.782.46 1.399 1.122 1.85 1.989.456.863.683 1.902.683 3.117Zm-2.055 0c0-.855-.134-1.577-.402-2.164-.265-.592-.632-1.038-1.102-1.339-.47-.305-1.012-.457-1.625-.457s-1.155.152-1.625.457c-.47.301-.84.747-1.107 1.339-.264.587-.397 1.309-.397 2.164 0 .856.133 1.58.397 2.17.268.588.637 1.034 1.107 1.34.47.3 1.012.45 1.625.45s1.155-.15 1.625-.45c.47-.306.837-.752 1.102-1.34.268-.59.402-1.314.402-2.17Z" />
    <path fill="#000"
        d="m56.61 17.048-2.578-8.461h1.366l1.83 6.478h.087l1.807-6.478h1.388l1.785 6.456h.088l1.829-6.456h1.366L63 17.047h-1.278l-1.85-6.5h-.133l-1.85 6.5H56.61ZM49.162 17.224c-.764 0-1.434-.182-2.01-.545-.574-.364-1.022-.873-1.345-1.526-.32-.654-.479-1.418-.479-2.292 0-.881.16-1.65.48-2.308.322-.657.77-1.168 1.343-1.531.577-.364 1.247-.545 2.011-.545s1.432.181 2.005.545c.577.363 1.025.874 1.344 1.531.323.658.485 1.427.485 2.308 0 .874-.162 1.638-.485 2.292a3.654 3.654 0 0 1-1.344 1.526c-.573.363-1.241.545-2.005.545Zm0-1.168c.58 0 1.058-.149 1.432-.446a2.63 2.63 0 0 0 .832-1.173c.18-.485.27-1.01.27-1.576 0-.565-.09-1.092-.27-1.58a2.665 2.665 0 0 0-.832-1.185c-.374-.301-.852-.452-1.432-.452s-1.058.15-1.432.452a2.665 2.665 0 0 0-.832 1.184 4.539 4.539 0 0 0-.27 1.581c0 .566.09 1.09.27 1.576.18.484.457.876.832 1.173.374.297.852.446 1.432.446ZM34.012 17.048l-3.084-11.28h1.388l2.357 9.187h.11l2.402-9.188h1.543l2.401 9.188h.11l2.358-9.188h1.388l-3.084 11.281h-1.41L38 8.058h-.089l-2.49 8.99h-1.41Z" />
</svg>