<svg xmlns="http://www.w3.org/2000/svg" width="152" height="24" fill="none" viewBox="0 0 152 24">
    <rect width="10.166" height="10.166" x="1.2" y="12.634" fill="#86A62C" rx="2.541" />
    <rect width="10.166" height="10.166" x="12.633" y="1.196" fill="#86A62C" rx="2.541" />
    <path fill="#86A62C" fill-rule="evenodd"
        d="M1.477 2.582C1.2 3.126 1.2 3.838 1.2 5.261v2.033c0 1.423 0 2.135.277 2.679.244.478.633.867 1.11 1.11.544.277 1.256.277 2.68.277H7.3c1.423 0 2.135 0 2.678-.277a2.542 2.542 0 0 0 1.11-1.11c.278-.544.278-1.256.278-2.679V5.261c0-1.423 0-2.135-.277-2.679a2.542 2.542 0 0 0-1.11-1.11c-.544-.277-1.256-.277-2.68-.277H5.267c-1.423 0-2.135 0-2.678.277a2.541 2.541 0 0 0-1.11 1.11Zm4.302 6.21 4.13-4.13-.898-.899-3.681 3.68L3.556 5.67l-.899.899 2.224 2.224c.248.248.65.248.898 0ZM12.633 16.698c0-1.423 0-2.135.277-2.678a2.541 2.541 0 0 1 1.11-1.11c.544-.278 1.256-.278 2.68-.278h2.032c1.424 0 2.135 0 2.679.277.478.244.867.632 1.11 1.11.277.544.277 1.256.277 2.68v2.032c0 1.424 0 2.135-.276 2.68a2.542 2.542 0 0 1-1.111 1.11c-.544.277-1.255.277-2.679.277H16.7c-1.423 0-2.135 0-2.679-.277a2.542 2.542 0 0 1-1.11-1.11c-.277-.545-.277-1.256-.277-2.68v-2.033Zm4.447.382v-2.224h1.271v2.224h2.224v1.27H18.35v2.224h-1.27V18.35h-2.224v-1.27h2.223Z"
        clip-rule="evenodd" />
    <path fill="#86A62C"
        d="m149.764 11.122-2.368.258a1.911 1.911 0 0 0-.352-.675 1.752 1.752 0 0 0-.66-.509c-.278-.13-.618-.194-1.019-.194-.541 0-.996.117-1.364.352-.364.234-.543.538-.538.911a.953.953 0 0 0 .351.782c.244.201.646.366 1.206.495l1.88.402c1.043.225 1.818.581 2.326 1.07.511.487.77 1.126.775 1.915a3.004 3.004 0 0 1-.61 1.837c-.398.527-.95.938-1.658 1.235-.708.296-1.522.444-2.44.444-1.349 0-2.435-.282-3.258-.846-.823-.57-1.314-1.361-1.472-2.375l2.534-.244c.115.497.359.873.732 1.126.373.254.859.38 1.457.38.617 0 1.112-.126 1.485-.38.378-.253.567-.567.567-.94a.979.979 0 0 0-.366-.782c-.239-.206-.612-.364-1.119-.473l-1.881-.395c-1.057-.22-1.839-.591-2.346-1.112-.508-.527-.759-1.192-.754-1.995-.005-.68.179-1.268.553-1.766.378-.502.902-.89 1.571-1.162.675-.277 1.452-.416 2.333-.416 1.291 0 2.308.275 3.05.825.746.55 1.208 1.294 1.385 2.232ZM131.334 12.772v6.458h-2.598V8.208h2.483v1.873h.13a3.145 3.145 0 0 1 1.212-1.47c.56-.364 1.252-.546 2.074-.546.761 0 1.424.162 1.988.488.57.325 1.01.796 1.321 1.413.316.618.471 1.366.466 2.246v7.018h-2.598v-6.616c0-.737-.191-1.313-.574-1.73-.378-.415-.902-.623-1.571-.623-.455 0-.859.1-1.213.301-.35.196-.625.48-.826.854-.196.373-.294.825-.294 1.356ZM121.25 19.445c-1.077 0-2.01-.236-2.799-.71a4.818 4.818 0 0 1-1.837-1.988c-.431-.851-.646-1.846-.646-2.985 0-1.138.215-2.136.646-2.992a4.807 4.807 0 0 1 1.837-1.995c.789-.473 1.722-.71 2.799-.71 1.076 0 2.009.237 2.799.71a4.772 4.772 0 0 1 1.83 1.995c.435.856.653 1.854.653 2.992 0 1.139-.218 2.134-.653 2.985a4.782 4.782 0 0 1-1.83 1.988c-.79.474-1.723.71-2.799.71Zm.014-2.08c.584 0 1.072-.16 1.464-.481.392-.326.684-.76.876-1.306a5.359 5.359 0 0 0 .294-1.823c0-.674-.098-1.284-.294-1.83-.192-.55-.484-.988-.876-1.313-.392-.325-.88-.488-1.464-.488-.598 0-1.096.163-1.493.488-.392.325-.686.763-.882 1.313-.192.546-.287 1.156-.287 1.83 0 .67.095 1.277.287 1.823.196.545.49.98.882 1.306.397.32.895.48 1.493.48ZM107.802 19.425c-.865 0-1.641-.223-2.325-.668-.684-.444-1.224-1.09-1.622-1.937-.397-.847-.595-1.875-.595-3.086 0-1.224.201-2.258.603-3.1.406-.846.954-1.485 1.643-1.915a4.225 4.225 0 0 1 2.304-.653c.646 0 1.177.11 1.593.33.416.215.746.476.99.782.244.301.433.586.567.854h.108V4.535h2.605v14.696h-2.555v-1.737h-.158a4.461 4.461 0 0 1-.581.854c-.254.297-.589.55-1.005.761-.416.21-.94.316-1.572.316Zm.725-2.131c.551 0 1.019-.149 1.407-.445.387-.302.682-.72.883-1.256.201-.536.301-1.16.301-1.873 0-.713-.1-1.332-.301-1.858-.197-.527-.488-.936-.876-1.228-.383-.291-.854-.437-1.414-.437-.579 0-1.062.15-1.449.452-.388.301-.68.718-.876 1.249-.196.53-.294 1.138-.294 1.822 0 .689.098 1.304.294 1.844.201.536.495.96.883 1.27.392.306.873.46 1.442.46ZM95.076 19.425c-.866 0-1.641-.223-2.325-.668-.684-.444-1.225-1.09-1.622-1.937s-.596-1.875-.596-3.086c0-1.224.201-2.258.603-3.1.407-.846.955-1.485 1.644-1.915a4.223 4.223 0 0 1 2.303-.653c.646 0 1.177.11 1.593.33.416.215.747.476.99.782.245.301.434.586.568.854h.107V4.535h2.605v14.696h-2.555v-1.737h-.157a4.436 4.436 0 0 1-.582.854c-.253.297-.588.55-1.004.761-.417.21-.94.316-1.572.316Zm.725-2.131c.55 0 1.019-.149 1.406-.445.388-.302.682-.72.883-1.256.201-.536.301-1.16.301-1.873 0-.713-.1-1.332-.3-1.858-.197-.527-.489-.936-.876-1.228-.383-.291-.855-.437-1.414-.437-.58 0-1.062.15-1.45.452-.387.301-.68.718-.875 1.249-.197.53-.295 1.138-.295 1.822 0 .689.098 1.304.295 1.844.2.536.495.96.882 1.27.393.306.873.46 1.443.46ZM78.698 19.231h-2.842l5.175-14.696h3.286L89.5 19.231h-2.842L82.732 7.55h-.115l-3.919 11.682Zm.094-5.762h7.75v2.138h-7.75V13.47Z" />
    <path fill="#000"
        d="M62.987 19.232 59.63 8.21h1.78l2.382 8.439h.115L66.26 8.21h1.808l2.326 8.41h.114l2.383-8.41h1.78l-3.359 11.022h-1.665l-2.411-8.467h-.172l-2.411 8.467h-1.666ZM53.285 19.46c-.995 0-1.868-.237-2.62-.71-.746-.474-1.33-1.137-1.75-1.988-.417-.852-.625-1.847-.625-2.985 0-1.148.208-2.15.624-3.007.421-.856 1.005-1.521 1.752-1.995.75-.473 1.624-.71 2.619-.71.995 0 1.866.237 2.612.71.751.474 1.335 1.139 1.751 1.995.421.856.632 1.859.632 3.007 0 1.138-.21 2.133-.632 2.985-.416.851-1 1.514-1.75 1.988-.747.473-1.618.71-2.613.71Zm0-1.521c.756 0 1.378-.194 1.866-.582.488-.387.849-.897 1.083-1.528a5.85 5.85 0 0 0 .352-2.052c0-.737-.117-1.423-.352-2.06-.234-.636-.595-1.15-1.083-1.543-.488-.392-1.11-.588-1.866-.588s-1.378.196-1.866.588c-.488.393-.85.907-1.084 1.543a5.911 5.911 0 0 0-.351 2.06c0 .736.117 1.42.351 2.052.235.631.596 1.14 1.084 1.528.488.388 1.11.582 1.866.582ZM33.55 19.231 29.53 4.535h1.809l3.071 11.97h.144l3.129-11.97h2.01l3.128 11.97h.144l3.071-11.97h1.809l-4.02 14.696H41.99l-3.244-11.71h-.115l-3.244 11.71H33.55Z" />
</svg>