<svg xmlns="http://www.w3.org/2000/svg" width="160" height="24" fill="none" viewBox="0 0 160 24">
    <g clip-path="url(#a)">
        <path fill="#00A464"
            d="M151.343 18.692c.796.454 1.74.681 2.834.681.847 0 1.6-.128 2.258-.383.658-.26 1.198-.625 1.619-1.094a3.75 3.75 0 0 0 .867-1.662l-2.401-.27a1.969 1.969 0 0 1-.504.774 2.248 2.248 0 0 1-.788.476 3.112 3.112 0 0 1-1.016.157c-.558 0-1.046-.119-1.463-.355a2.487 2.487 0 0 1-.973-1.037c-.224-.44-.34-.963-.347-1.57h7.598v-.788c0-.957-.132-1.78-.397-2.472-.266-.696-.63-1.268-1.094-1.718a4.303 4.303 0 0 0-1.591-.994 5.504 5.504 0 0 0-1.903-.327c-1.042 0-1.948.239-2.72.717-.772.474-1.373 1.136-1.804 1.989-.426.847-.639 1.832-.639 2.954 0 1.141.213 2.133.639 2.976a4.62 4.62 0 0 0 1.825 1.946Zm.091-6.016c.024-.427.134-.822.328-1.186.223-.412.533-.743.931-.994.397-.256.859-.383 1.384-.383.493 0 .924.11 1.293.333.374.223.665.528.873.917.209.383.315.82.32 1.313h-5.129ZM144.132 14.571v-6.32h2.571v10.908h-2.493V17.22h-.113a3.276 3.276 0 0 1-1.215 1.498c-.558.389-1.247.583-2.066.583-.715 0-1.347-.159-1.896-.476-.545-.322-.971-.788-1.279-1.399-.307-.615-.461-1.359-.461-2.23V8.25h2.571v6.548c0 .691.189 1.24.568 1.648.378.407.876.61 1.491.61.379 0 .746-.092 1.101-.276.355-.185.646-.46.873-.824.232-.37.348-.831.348-1.385ZM127.567 12.769v6.391h-2.571V8.252h2.457v1.853h.128a3.119 3.119 0 0 1 1.2-1.455c.554-.36 1.238-.54 2.053-.54.753 0 1.408.16 1.967.483.563.322.999.788 1.307 1.399.312.61.466 1.351.461 2.223v6.945h-2.571v-6.548c0-.729-.189-1.3-.568-1.711-.374-.412-.892-.618-1.555-.618-.45 0-.85.1-1.2.298a2.067 2.067 0 0 0-.817.845c-.194.37-.291.817-.291 1.343ZM115.137 18.692c.796.454 1.74.681 2.834.681.847 0 1.6-.128 2.258-.383.658-.26 1.198-.625 1.619-1.094a3.75 3.75 0 0 0 .867-1.662l-2.401-.27a1.969 1.969 0 0 1-.504.774 2.248 2.248 0 0 1-.788.476 3.112 3.112 0 0 1-1.016.157c-.558 0-1.046-.119-1.463-.355a2.487 2.487 0 0 1-.973-1.037c-.224-.44-.34-.963-.347-1.57h7.598v-.788c0-.957-.132-1.78-.397-2.472-.266-.696-.63-1.268-1.094-1.718a4.303 4.303 0 0 0-1.591-.994 5.504 5.504 0 0 0-1.903-.327c-1.042 0-1.948.239-2.72.717-.772.474-1.373 1.136-1.804 1.989-.426.847-.639 1.832-.639 2.954 0 1.141.213 2.133.639 2.976a4.62 4.62 0 0 0 1.825 1.946Zm.091-6.016c.024-.427.134-.822.328-1.186a2.65 2.65 0 0 1 .93-.994c.398-.256.86-.383 1.385-.383.493 0 .924.11 1.293.333.374.223.665.528.873.917.209.383.315.82.32 1.313h-5.129ZM111.732 8.25l-3.885 10.909h-2.84L101.122 8.25h2.741l2.507 8.104h.114l2.514-8.104h2.734ZM92.44 18.692c.796.454 1.74.681 2.835.681.847 0 1.6-.128 2.258-.383.658-.26 1.198-.625 1.619-1.094a3.737 3.737 0 0 0 .866-1.662l-2.4-.27a1.981 1.981 0 0 1-.504.774 2.254 2.254 0 0 1-.788.476 3.109 3.109 0 0 1-1.016.157c-.559 0-1.046-.119-1.463-.355a2.483 2.483 0 0 1-.973-1.037c-.224-.44-.34-.963-.347-1.57h7.598v-.788c0-.957-.133-1.78-.398-2.472-.265-.696-.63-1.268-1.093-1.718-.46-.45-.99-.781-1.591-.994a5.506 5.506 0 0 0-1.904-.327c-1.041 0-1.948.239-2.72.717-.771.474-1.372 1.136-1.803 1.989-.426.847-.64 1.832-.64 2.954 0 1.141.214 2.133.64 2.976a4.617 4.617 0 0 0 1.825 1.946Zm.091-6.016a2.83 2.83 0 0 1 .329-1.186c.222-.412.532-.743.93-.994.398-.256.86-.383 1.385-.383.492 0 .923.11 1.293.333.374.223.665.528.873.917.208.383.315.82.32 1.313h-5.13ZM77.708 19.159V4.614h5.454c1.117 0 2.055.194 2.813.583.762.388 1.337.932 1.725 1.633.393.696.59 1.508.59 2.436 0 .933-.2 1.742-.597 2.429-.393.682-.973 1.21-1.74 1.583-.767.37-1.709.554-2.826.554h-3.885v-2.187h3.53c.653 0 1.188-.09 1.605-.27.416-.184.724-.452.923-.802.203-.355.305-.79.305-1.307 0-.516-.102-.956-.305-1.32a1.943 1.943 0 0 0-.93-.839c-.417-.194-.955-.291-1.613-.291h-2.414v12.343h-2.635Zm7.514-6.59 3.6 6.59h-2.94l-3.537-6.59h2.877Z" />
        <path fill="#000"
            d="M64.03 19.159 60.708 8.25h1.761l2.358 8.352h.114l2.33-8.352h1.789l2.3 8.324h.114l2.358-8.324h1.761L72.27 19.16H70.62l-2.386-8.38h-.17l-2.387 8.38h-1.647ZM54.428 19.387c-.985 0-1.849-.234-2.592-.703-.739-.468-1.316-1.124-1.733-1.967-.412-.842-.618-1.827-.618-2.954 0-1.136.206-2.128.618-2.976.417-.847.994-1.505 1.733-1.974.743-.469 1.607-.703 2.592-.703.985 0 1.847.234 2.585.703.744.469 1.321 1.127 1.733 1.974.417.848.625 1.84.625 2.976 0 1.127-.208 2.111-.625 2.954-.412.843-.99 1.499-1.733 1.967-.738.47-1.6.703-2.585.703Zm0-1.505c.748 0 1.364-.192 1.847-.575a3.39 3.39 0 0 0 1.072-1.513 5.791 5.791 0 0 0 .348-2.031 5.85 5.85 0 0 0-.348-2.038c-.232-.63-.59-1.139-1.072-1.527-.483-.388-1.099-.583-1.847-.583s-1.363.195-1.846.583c-.483.388-.84.897-1.073 1.527a5.85 5.85 0 0 0-.348 2.038c0 .729.116 1.406.348 2.031a3.39 3.39 0 0 0 1.073 1.513c.483.383 1.098.575 1.846.575ZM34.9 19.159 30.923 4.614h1.79l3.039 11.846h.142L38.99 4.614h1.989l3.096 11.846h.142l3.04-11.846h1.79L45.07 19.16H43.25l-3.21-11.59h-.113l-3.21 11.59H34.9Z" />
        <path fill="#00A464"
            d="M23.497 23.497H17.75L12 .502h5.749l5.748 22.995ZM17.75 23.5h-5.748L6.252 8.17h5.75L17.75 23.5ZM12 23.495H6.25L.503 15.83h5.749l5.748 7.665Z" />
    </g>
    <defs>
        <clipPath id="a">
            <path fill="#fff" d="M0 0h159.6v24H0z" />
        </clipPath>
    </defs>
</svg>