<svg xmlns="http://www.w3.org/2000/svg" width="82" height="24" fill="none" viewBox="0 0 82 24">
    <path fill="#037FFF"
        d="m81.762 6.107-2.556 3.827a.95.95 0 0 1-1.583 0l-.481-.72a1.618 1.618 0 0 1 0-1.796l1.184-1.774c.372-.558.998-.89 1.665-.882l1.078.012c.675.008 1.07.769.694 1.334l-.001-.001Z" />
    <path fill="#000"
        d="M34.294 14.3v3.784c0 .558-.448 1.01-1 1.01h-1.295c-.553 0-1.001-.453-1.001-1.01V5.762c0-.558.448-1.01 1-1.01h4.013c1.002 0 1.861.12 2.58.36.718.24 1.31.568 1.775.988.465.42.808.916 1.03 1.487.22.57.331 1.188.331 1.85 0 .716-.113 1.372-.341 1.97a3.956 3.956 0 0 1-1.044 1.535c-.468.427-1.062.76-1.78 1s-1.569.359-2.55.359h-1.717Zm0-2.51h1.717c.858 0 1.476-.206 1.852-.62.377-.413.566-.99.566-1.732 0-.328-.048-.626-.146-.895a1.823 1.823 0 0 0-.443-.694 1.99 1.99 0 0 0-.751-.448 3.298 3.298 0 0 0-1.078-.158h-1.717v4.548ZM47.662 8.723c.767 0 1.466.12 2.097.364.63.242 1.172.59 1.624 1.043a4.688 4.688 0 0 1 1.053 1.649c.25.646.376 1.373.376 2.18 0 .806-.125 1.547-.376 2.2a4.747 4.747 0 0 1-1.053 1.663 4.623 4.623 0 0 1-1.624 1.054c-.63.246-1.33.368-2.097.368-.767 0-1.478-.123-2.111-.368a4.71 4.71 0 0 1-1.64-1.054 4.653 4.653 0 0 1-1.063-1.663c-.25-.653-.375-1.387-.375-2.2 0-.814.125-1.534.376-2.18a4.635 4.635 0 0 1 1.062-1.649 4.69 4.69 0 0 1 1.64-1.043c.634-.243 1.337-.364 2.11-.364Zm0 8.259c.695 0 1.208-.248 1.536-.744.328-.495.492-1.248.492-2.258s-.164-1.762-.492-2.254c-.328-.492-.84-.739-1.536-.739-.696 0-1.239.247-1.57.739-.333.492-.498 1.244-.498 2.254s.166 1.764.497 2.258c.332.496.855.744 1.57.744ZM60.651 11.114a.776.776 0 0 1-.248.266.644.644 0 0 1-.337.079c-.136 0-.287-.03-.43-.093l-.463-.203a5.097 5.097 0 0 0-.561-.202 2.473 2.473 0 0 0-.712-.093c-.383 0-.678.074-.882.221a.714.714 0 0 0-.308.615c0 .191.067.348.2.473.135.125.31.235.532.33.221.095.472.185.751.27.28.086.566.181.859.285.293.105.579.228.858.369.28.141.53.315.751.522.222.207.398.457.532.753.133.295.2.65.2 1.063 0 .505-.091.971-.273 1.398a2.96 2.96 0 0 1-.815 1.102c-.36.308-.806.548-1.336.718-.53.17-1.14.256-1.83.256-.344 0-.689-.032-1.033-.098a7.092 7.092 0 0 1-1-.266 5.45 5.45 0 0 1-.892-.398 3.834 3.834 0 0 1-.702-.497l.702-1.122c.084-.13.185-.235.302-.31a.837.837 0 0 1 .458-.113c.176 0 .333.04.473.118l.453.256c.163.093.354.177.571.256.217.08.492.119.824.119.234 0 .433-.025.596-.074.162-.05.293-.117.39-.203a.802.802 0 0 0 .283-.61.665.665 0 0 0-.205-.5 1.794 1.794 0 0 0-.536-.34 6.456 6.456 0 0 0-.756-.266c-.282-.082-.57-.175-.863-.28a6.829 6.829 0 0 1-.864-.38 2.96 2.96 0 0 1-.755-.561 2.599 2.599 0 0 1-.536-.832c-.137-.328-.206-.725-.206-1.191 0-.433.084-.844.25-1.235.166-.39.414-.734.746-1.029.332-.295.748-.53 1.249-.703.5-.174 1.085-.261 1.755-.261a5.602 5.602 0 0 1 2.019.373c.298.119.572.258.82.418.247.16.464.336.653.527l-.684 1.072v.001ZM66.606 19.246c-.481 0-.906-.07-1.273-.212a2.523 2.523 0 0 1-.927-.601c-.25-.26-.44-.573-.57-.94a3.673 3.673 0 0 1-.194-1.23v-5.277h-.86a.572.572 0 0 1-.4-.152c-.11-.102-.165-.25-.165-.447v-.359c0-.484.34-.9.811-.991l.799-.156.595-2.491c.078-.315.299-.473.663-.473h1.58V8.9h1.457c.553 0 1 .453 1 1.01v.066c0 .559-.448 1.01-1 1.01h-1.457v5.07a.96.96 0 0 0 .17.585c.114.154.278.231.493.231a.95.95 0 0 0 .472-.113c.055-.03.107-.056.157-.08a.397.397 0 0 1 .17-.034c.091 0 .164.021.22.064.055.042.113.11.17.202l.341.537a1.016 1.016 0 0 1-.512 1.498 5.199 5.199 0 0 1-1.74.297v.003Z" />
    <path fill="#037FFF"
        d="m81.073 19.235-1.074.012a1.98 1.98 0 0 1-1.668-.882l-2.376-3.557-2.375 3.558a1.98 1.98 0 0 1-1.671.882l-1.071-.013c-.675-.008-1.07-.768-.694-1.334l3.939-5.898-3.937-5.895c-.377-.564.02-1.326.694-1.334l1.074-.012a1.98 1.98 0 0 1 1.668.883L81.767 17.9c.376.565-.02 1.326-.694 1.334ZM9.821.769h-7.3A2.033 2.033 0 0 0 .497 2.81v7.367c0 1.128.906 2.042 2.024 2.042h7.3a2.033 2.033 0 0 0 2.024-2.042V2.811A2.033 2.033 0 0 0 9.82.769Z" />
    <path fill="#3BABFF"
        d="M19.295 2.972h-7.3A2.033 2.033 0 0 0 9.97 5.014v7.368c0 1.127.906 2.042 2.023 2.042h7.3a2.033 2.033 0 0 0 2.024-2.042V5.014a2.033 2.033 0 0 0-2.023-2.042Z" />
    <path fill="#69C6FF"
        d="M21.475 11.784h-7.301a2.033 2.033 0 0 0-2.024 2.042v7.368c0 1.128.906 2.042 2.024 2.042h7.3a2.033 2.033 0 0 0 2.024-2.042v-7.368a2.033 2.033 0 0 0-2.023-2.042Z" />
    <path fill="#71DEFF"
        d="M12.006 9.577h-7.3a2.033 2.033 0 0 0-2.024 2.041v7.368c0 1.128.906 2.042 2.023 2.042h7.3a2.033 2.033 0 0 0 2.024-2.042v-7.368a2.033 2.033 0 0 0-2.023-2.041Z" />
</svg>