<svg xmlns="http://www.w3.org/2000/svg" width="132" height="24" fill="none" viewBox="0 0 132 24">
    <path fill="#000"
        d="M50.486 5.656 46.509 18.57a.74.74 0 0 1-.706.524H44.56a.74.74 0 0 1-.704-.517l-2.86-9.02a6.595 6.595 0 0 1-.23-.85c-.038.161-.076.313-.114.454-.038.141-.08.274-.125.396l-2.89 9.02a.74.74 0 0 1-.703.517H35.68a.741.741 0 0 1-.707-.524L31.007 5.656a.403.403 0 0 1 .382-.52h1.613a.946.946 0 0 1 .56.159.767.767 0 0 1 .302.429l2.355 8.35c.052.206.1.43.148.672.048.24.098.493.148.757.05-.27.108-.524.167-.763.061-.238.127-.46.196-.666l2.72-8.35a.92.92 0 0 1 .301-.406.846.846 0 0 1 .55-.184h.757a.863.863 0 0 1 .545.165c.142.11.25.257.317.425l2.71 8.35c.148.452.269.914.364 1.381.083-.508.175-.968.277-1.38l2.355-8.351a.726.726 0 0 1 .292-.416.915.915 0 0 1 .56-.174h1.479a.4.4 0 0 1 .38.522ZM54.026 10.255c.375-.355.802-.651 1.264-.879a3.645 3.645 0 0 1 1.618-.338c.49-.01.976.085 1.427.275a2.8 2.8 0 0 1 1.038.773c.287.35.502.754.632 1.188.148.494.222 1.006.215 1.521v5.876c0 .236-.19.428-.424.428h-1.517a.426.426 0 0 1-.424-.428v-5.877c0-.604-.137-1.073-.411-1.405-.275-.331-.694-.497-1.255-.497-.4-.003-.793.094-1.148.28-.375.2-.718.457-1.015.763v6.735c0 .235-.19.427-.424.427h-1.517a.426.426 0 0 1-.424-.427V5.18c0-.237.19-.428.424-.428h1.517c.234 0 .424.191.424.427v5.076ZM66.478 9.034a5.33 5.33 0 0 1 1.986.358c.577.224 1.098.57 1.532 1.014.436.457.77 1.004.981 1.601.238.679.355 1.396.345 2.115a6.137 6.137 0 0 1-.345 2.124c-.212.6-.546 1.15-.981 1.611a4.3 4.3 0 0 1-1.532 1.024 5.32 5.32 0 0 1-1.986.358 5.367 5.367 0 0 1-2-.358 4.284 4.284 0 0 1-1.538-1.024 4.617 4.617 0 0 1-.986-1.611 6.072 6.072 0 0 1-.35-2.124c-.01-.72.109-1.436.35-2.114a4.502 4.502 0 0 1 .986-1.602c.435-.444.958-.79 1.537-1.014a5.4 5.4 0 0 1 2-.358Zm0 8.37c.816 0 1.421-.277 1.814-.83.392-.554.588-1.366.588-2.433 0-1.069-.195-1.883-.588-2.442-.393-.56-.998-.84-1.814-.84-.83 0-1.445.281-1.843.844-.398.564-.598 1.376-.598 2.438 0 1.062.2 1.87.598 2.428.4.557 1.013.835 1.843.836v-.001ZM75.204 5.18v13.49c0 .235-.19.427-.424.427h-1.517a.426.426 0 0 1-.424-.427V5.18c0-.237.19-.428.424-.428h1.516c.234 0 .425.191.425.427ZM79.07 14.437c.026.45.117.893.268 1.318.122.34.31.652.556.917.228.24.508.424.818.54.335.123.69.183 1.047.178.336.007.669-.039.991-.136.25-.078.495-.18.727-.299.208-.11.389-.21.545-.298a.911.911 0 0 1 .455-.136.49.49 0 0 1 .44.222l.68.869c-.254.301-.55.563-.88.777-.32.207-.662.374-1.02.501a5.55 5.55 0 0 1-1.081.266c-.354.05-.711.077-1.069.077a5.232 5.232 0 0 1-1.905-.343 4.24 4.24 0 0 1-1.531-1.014 4.756 4.756 0 0 1-1.025-1.66 6.482 6.482 0 0 1-.374-2.293 5.553 5.553 0 0 1 .325-1.906 4.574 4.574 0 0 1 .933-1.554c.418-.45.923-.806 1.485-1.047a4.853 4.853 0 0 1 1.977-.386 4.815 4.815 0 0 1 1.714.298c.507.19.967.488 1.349.875.389.402.69.882.886 1.41.223.61.332 1.256.32 1.906 0 .36-.037.603-.115.729-.077.126-.223.187-.44.187h-6.079l.003.002Zm4.51-1.44a2.94 2.94 0 0 0-.13-.873 2.072 2.072 0 0 0-.387-.72 1.821 1.821 0 0 0-.657-.488 2.233 2.233 0 0 0-.924-.178c-.683 0-1.22.196-1.613.59-.393.392-.643.95-.751 1.67h4.461ZM93.179 11.119a.625.625 0 0 1-.201.216.509.509 0 0 1-.268.063.842.842 0 0 1-.368-.096c-.131-.064-.283-.137-.456-.217a3.938 3.938 0 0 0-.588-.217 2.774 2.774 0 0 0-.78-.096c-.466 0-.832.1-1.097.299a.933.933 0 0 0-.397.782.752.752 0 0 0 .205.536c.158.159.343.288.545.381.249.118.507.216.77.295.288.086.58.182.877.285.297.102.589.22.877.352.28.127.54.297.77.501.229.205.414.453.546.73.145.32.216.67.205 1.023.004.452-.082.9-.254 1.318-.169.4-.426.758-.752 1.043-.36.308-.779.543-1.23.685a5.273 5.273 0 0 1-1.69.245c-.332 0-.664-.03-.99-.091a5.752 5.752 0 0 1-.928-.257 5.086 5.086 0 0 1-.823-.386 4.003 4.003 0 0 1-.365-.239.427.427 0 0 1-.108-.564l.353-.588a.779.779 0 0 1 .249-.25.688.688 0 0 1 .364-.087.75.75 0 0 1 .416.126c.13.084.282.174.455.27.194.107.398.197.607.27.286.092.586.134.886.126.245.005.49-.029.723-.101.181-.057.35-.147.498-.266a.987.987 0 0 0 .287-.381c.06-.143.09-.295.09-.448a.806.806 0 0 0-.205-.57 1.8 1.8 0 0 0-.544-.387 5.366 5.366 0 0 0-.776-.294 24.34 24.34 0 0 1-.89-.285 8.092 8.092 0 0 1-.89-.362 3.05 3.05 0 0 1-.777-.526 2.354 2.354 0 0 1-.545-.783 2.748 2.748 0 0 1-.206-1.12c-.002-.398.08-.793.239-1.157.16-.369.4-.698.704-.96a3.49 3.49 0 0 1 1.158-.657 4.756 4.756 0 0 1 1.603-.245 4.874 4.874 0 0 1 1.849.338c.395.156.766.369 1.1.632a.43.43 0 0 1 .095.563l-.343.552v-.001ZM95.164 10.572c1.13-1.043 2.49-1.564 4.078-1.564a3.953 3.953 0 0 1 1.541.285c.435.178.827.448 1.149.792.319.35.562.762.713 1.212.167.497.25 1.02.243 1.544v6.255h-1.07a1.067 1.067 0 0 1-.517-.101.707.707 0 0 1-.287-.41l-.21-.714a8.36 8.36 0 0 1-.727.594 3.997 3.997 0 0 1-1.555.695 4.727 4.727 0 0 1-.962.091 3.749 3.749 0 0 1-1.148-.168 2.496 2.496 0 0 1-.91-.507 2.273 2.273 0 0 1-.593-.84 3.012 3.012 0 0 1-.211-1.168c0-.255.042-.507.125-.748.09-.26.228-.502.406-.71.212-.246.46-.46.733-.637.345-.22.716-.396 1.106-.52a9.455 9.455 0 0 1 1.528-.362c.659-.1 1.325-.157 1.99-.169v-.58c0-.663-.14-1.153-.421-1.471-.281-.318-.686-.479-1.216-.479a2.847 2.847 0 0 0-.953.136c-.23.081-.454.182-.666.304-.191.113-.365.214-.522.304a1.04 1.04 0 0 1-.522.136.674.674 0 0 1-.42-.13 1.07 1.07 0 0 1-.278-.304l-.421-.763-.003-.003Zm5.418 4.296c-.577.02-1.153.08-1.723.178a4.57 4.57 0 0 0-1.12.333c-.239.101-.447.264-.603.473-.12.172-.182.378-.182.589 0 .418.122.718.368.897.284.192.621.287.962.27.435.011.866-.08 1.259-.266.39-.205.742-.478 1.038-.805v-1.67h.001ZM107.196 5.18v13.49a.427.427 0 0 1-.424.427h-1.517a.426.426 0 0 1-.424-.427V5.18c0-.237.19-.428.424-.428h1.517c.233 0 .424.19.424.427ZM111.062 14.437c.026.45.117.893.268 1.318.122.34.311.652.556.917.228.24.508.424.818.54.335.123.69.183 1.048.178.335.007.67-.039.99-.136.25-.078.495-.18.727-.299.208-.11.389-.21.545-.298a.91.91 0 0 1 .456-.136.49.49 0 0 1 .44.222l.679.869a3.98 3.98 0 0 1-.88.777c-.32.207-.662.374-1.02.501-.35.125-.713.214-1.081.266-.354.05-.711.077-1.068.077a5.237 5.237 0 0 1-1.906-.343 4.245 4.245 0 0 1-1.531-1.014 4.745 4.745 0 0 1-1.025-1.66 6.478 6.478 0 0 1-.374-2.293 5.55 5.55 0 0 1 .325-1.906 4.567 4.567 0 0 1 .934-1.554 4.38 4.38 0 0 1 1.484-1.047 4.852 4.852 0 0 1 1.977-.386 4.817 4.817 0 0 1 1.714.298c.507.19.967.488 1.349.875.389.402.691.882.886 1.41.223.61.332 1.256.321 1.906 0 .36-.038.603-.116.729-.077.126-.222.187-.44.187h-6.079l.003.002Zm4.509-1.44a2.914 2.914 0 0 0-.129-.873 2.073 2.073 0 0 0-.387-.72 1.826 1.826 0 0 0-.657-.488 2.23 2.23 0 0 0-.924-.178c-.682 0-1.22.196-1.613.59-.393.392-.643.95-.751 1.67h4.461Z" />
    <path fill="#6C6CFF"
        d="m130.018 5.64-3.39 4.793a.279.279 0 0 1-.456 0l-.834-1.18a.914.914 0 0 1 0-1.053l1.825-2.58c.216-.306.564-.487.937-.487h1.657a.32.32 0 0 1 .318.32c0 .068-.02.133-.059.187h.002ZM128.75 19.087h1.658c.066 0 .132-.02.186-.058a.323.323 0 0 0 .075-.449l-4.904-6.928-1.433-2.028-2.838-4.01a1.147 1.147 0 0 0-.936-.486h-1.659a.323.323 0 0 0-.26.508l4.256 6.016-4.902 6.925a.319.319 0 0 0-.059.187c0 .177.142.32.318.32h1.659c.372 0 .72-.18.936-.486l3.483-4.92 3.483 4.923c.217.306.566.486.937.486Z" />
    <path fill="#FEAD01"
        d="M11.172 2.987 5.816 4.113a.593.593 0 0 0-.456.701l1.116 5.401c.067.32.378.527.696.46l5.356-1.126a.593.593 0 0 0 .456-.701l-1.116-5.401a.588.588 0 0 0-.696-.46ZM12.706 10.391l-5.357 1.126a.593.593 0 0 0-.456.7L8.01 17.62c.066.32.377.526.695.46l5.357-1.126a.593.593 0 0 0 .455-.701l-1.116-5.401a.588.588 0 0 0-.695-.46ZM18.523 1.443l-5.357 1.125a.593.593 0 0 0-.455.701l1.116 5.402c.066.32.377.526.695.46l5.357-1.126a.593.593 0 0 0 .456-.702l-1.117-5.4a.588.588 0 0 0-.695-.46ZM20.051 8.851l-5.356 1.126a.593.593 0 0 0-.456.701l1.116 5.401c.066.32.378.526.696.46l5.356-1.126a.593.593 0 0 0 .456-.701l-1.116-5.401a.588.588 0 0 0-.696-.46Z" />
    <path fill="#6C6CFF"
        d="M5.983 17.505a.468.468 0 0 1-.456-.375L2.607 2.986a.595.595 0 1 0-1.164.245l.23 1.112a.466.466 0 1 1-.913.193L.53 3.422c-.084-.4-.005-.817.218-1.159.22-.342.568-.58.965-.663A1.53 1.53 0 0 1 3.52 2.795l2.92 14.143a.471.471 0 0 1-.457.566v.001ZM10.052 20.207a.471.471 0 0 1-.095-.932l12.977-2.727a.471.471 0 0 1 .191.921l-12.977 2.728a.488.488 0 0 1-.096.009v.001Z" />
    <path fill="#000"
        d="M6.672 22.564a2.12 2.12 0 0 1-2.107-2.133 2.12 2.12 0 0 1 2.115-2.123A2.116 2.116 0 0 1 8.742 20a2.126 2.126 0 0 1-2.07 2.562Zm.006-3.316a1.187 1.187 0 0 0-1.155 1.429 1.178 1.178 0 0 0 1.392.92 1.187 1.187 0 0 0 .913-1.404 1.179 1.179 0 0 0-1.15-.944v-.001Z" />
</svg>