<svg xmlns="http://www.w3.org/2000/svg" width="128" height="24" fill="none" viewBox="0 0 128 24">
    <path fill="#FF176B"
        d="M16.148 4.83 22.5.546l-3.142 15.707-1.945 2.856H3.676L1.5 16.253l1.713-8.567L7.05 9.113l-1.143 5.713h2.747l1.715-8.568h4.12l-1.714 8.568h2.748l2-9.996h-1.375ZM5.963 23.455c.725 0 1.312-.64 1.312-1.432 0-.79-.587-1.431-1.312-1.431-.725 0-1.313.64-1.313 1.431s.588 1.432 1.313 1.432ZM12.787 23.455c.725 0 1.313-.64 1.313-1.432 0-.79-.588-1.431-1.313-1.431s-1.312.64-1.312 1.431.587 1.432 1.312 1.432ZM119.714 18.793c.795.455 1.74.682 2.833.682.848 0 1.601-.128 2.259-.383.658-.26 1.198-.625 1.619-1.094a3.75 3.75 0 0 0 .867-1.662l-2.401-.27a1.991 1.991 0 0 1-.504.774 2.262 2.262 0 0 1-.789.476 3.109 3.109 0 0 1-1.015.156c-.559 0-1.047-.118-1.463-.355a2.48 2.48 0 0 1-.973-1.037c-.224-.439-.34-.962-.348-1.57h7.599v-.788c0-.956-.132-1.78-.398-2.471-.265-.696-.629-1.27-1.093-1.719a4.31 4.31 0 0 0-1.591-.994 5.51 5.51 0 0 0-1.904-.327c-1.041 0-1.948.239-2.72.717-.772.474-1.373 1.137-1.804 1.989-.426.847-.639 1.832-.639 2.954 0 1.141.213 2.133.639 2.976a4.616 4.616 0 0 0 1.826 1.946Zm.09-6.015c.025-.428.134-.823.329-1.186.222-.412.532-.744.93-.995.398-.255.859-.383 1.385-.383.492 0 .923.111 1.293.334.374.222.665.527.873.916.208.383.315.821.32 1.314h-5.13ZM110.237 19.26V8.35h2.493v1.819h.114c.199-.63.54-1.115 1.023-1.456a2.813 2.813 0 0 1 1.669-.519c.142 0 .3.007.475.022.18.009.33.026.448.05v2.364a2.707 2.707 0 0 0-.519-.1 4.75 4.75 0 0 0-.674-.049 2.6 2.6 0 0 0-1.264.306c-.37.198-.661.475-.874.83-.213.356-.32.765-.32 1.23v6.413h-2.571ZM102.827 19.475c-1.065 0-1.989-.234-2.77-.703a4.774 4.774 0 0 1-1.818-1.967c-.426-.843-.64-1.828-.64-2.955s.214-2.114.64-2.961a4.765 4.765 0 0 1 1.818-1.975c.781-.469 1.705-.703 2.77-.703s1.989.234 2.77.703a4.719 4.719 0 0 1 1.811 1.975c.431.847.646 1.834.646 2.961 0 1.127-.215 2.112-.646 2.955a4.728 4.728 0 0 1-1.811 1.967c-.781.469-1.705.703-2.77.703Zm.014-2.06c.578 0 1.061-.158 1.449-.475.388-.322.677-.753.866-1.293a5.28 5.28 0 0 0 .292-1.804c0-.668-.097-1.271-.292-1.811-.189-.544-.478-.978-.866-1.3-.388-.322-.871-.483-1.449-.483-.592 0-1.084.161-1.477.483-.388.322-.68.756-.874 1.3a5.454 5.454 0 0 0-.284 1.811c0 .663.095 1.264.284 1.804.194.54.486.97.874 1.293.393.317.885.476 1.477.476ZM96.038 10.342h-2.152v5.64c0 .345.052.61.156.795.11.18.251.303.426.37.175.065.37.099.583.099.16 0 .308-.012.44-.036.137-.024.242-.045.313-.064l.433 2.01c-.137.047-.334.1-.59.156-.25.057-.558.09-.923.1-.644.019-1.224-.078-1.74-.291a2.708 2.708 0 0 1-1.229-1.009c-.298-.454-.445-1.023-.44-1.704v-6.066h-1.548V8.353h1.548V5.74h2.57v2.614h2.153v1.988ZM85.62 8.715c-.066-.62-.345-1.103-.837-1.449-.488-.345-1.122-.518-1.904-.518-.549 0-1.02.083-1.413.249-.393.165-.694.39-.902.674a1.64 1.64 0 0 0-.32.973c0 .303.07.566.206.789.142.222.334.412.576.568.241.151.509.28.802.383.294.104.59.192.888.263l1.364.341c.549.128 1.077.3 1.583.519.512.217.969.492 1.371.823.407.332.73.732.966 1.2.237.47.355 1.019.355 1.648 0 .853-.218 1.603-.653 2.252-.436.644-1.066 1.148-1.89 1.512-.819.36-1.81.54-2.975.54-1.132 0-2.114-.175-2.948-.525-.828-.35-1.477-.862-1.946-1.534-.464-.673-.715-1.492-.753-2.458h2.593c.038.507.194.928.468 1.265.275.336.633.587 1.073.752.445.166.942.249 1.491.249.573 0 1.075-.085 1.506-.256.436-.175.777-.417 1.023-.724a1.75 1.75 0 0 0 .376-1.094c-.004-.379-.116-.691-.334-.938-.217-.25-.523-.459-.916-.624a8.838 8.838 0 0 0-1.363-.455l-1.655-.426c-1.198-.308-2.145-.774-2.841-1.4-.691-.629-1.037-1.465-1.037-2.506 0-.857.232-1.608.696-2.252.469-.644 1.106-1.143 1.91-1.498.805-.36 1.717-.54 2.735-.54 1.032 0 1.936.18 2.713.54.781.355 1.394.85 1.84 1.484.444.63.674 1.354.688 2.173h-2.535Z" />
    <path fill="#000"
        d="M64.038 19.26 60.714 8.353h1.761l2.358 8.352h.114l2.33-8.352h1.79l2.3 8.323h.114l2.358-8.323H75.6L72.276 19.26H70.63l-2.387-8.381h-.17l-2.386 8.38h-1.648ZM54.43 19.49c-.984 0-1.849-.235-2.592-.704-.739-.469-1.316-1.124-1.733-1.967-.412-.843-.618-1.828-.618-2.955 0-1.136.206-2.128.618-2.976.417-.847.995-1.505 1.733-1.974.743-.469 1.608-.703 2.593-.703.984 0 1.846.234 2.585.703.743.469 1.32 1.127 1.733 1.975.416.847.625 1.839.625 2.975 0 1.127-.209 2.112-.625 2.955-.412.843-.99 1.498-1.733 1.967-.739.469-1.6.703-2.585.703Zm0-1.506c.749 0 1.364-.192 1.847-.576.483-.383.84-.887 1.072-1.512a5.792 5.792 0 0 0 .349-2.032 5.85 5.85 0 0 0-.349-2.038 3.436 3.436 0 0 0-1.072-1.527c-.483-.388-1.098-.582-1.846-.582-.749 0-1.364.194-1.847.582-.483.388-.84.897-1.073 1.527a5.849 5.849 0 0 0-.348 2.038c0 .73.116 1.407.349 2.032.231.625.589 1.129 1.072 1.512.483.384 1.098.576 1.846.576ZM34.902 19.26 30.925 4.716h1.79l3.04 11.847h.141l3.097-11.847h1.989l3.096 11.847h.142l3.04-11.847h1.79l-3.977 14.546h-1.819L40.044 7.67h-.113l-3.21 11.59h-1.819Z" />
</svg>