<svg xmlns="http://www.w3.org/2000/svg" width="1024" height="1024" viewBox="0 0 1024 1024">
    <path fill="#fbfafd" d="M0 0h1024v1024H0z" />
    <path fill="#1c3dd9"
        d="m166.451 470.634-.049-114.849c-.017-28.927-.097-57.848.03-86.8.103-23.597 9.614-46.48 26.514-63.05 13.864-13.593 33.739-22.885 53.079-24.834 9.103-.917 22.221-.218 31.823-.308 12.086-.113 24.503.064 36.616-.035 7.991-.068 16.508 2.497 21.935 8.614 12.634 14.237 7.129 39.437-12.426 44.164-6.077 1.469-12.023 1.037-18.106 1.028l-33.182-.069c-7.824-.017-19.776-.495-27.039 1.282a34.6 34.6 0 0 0-15.078 7.978c-12.74 11.453-11.144 23.943-11.117 39.547l.01 30.84-.014 102.401c.006 15.748.651 37.674-.14 53.092l.083.88a45 45 0 0 1 9.165 8.587 50.8 50.8 0 0 1 11.164 37.414c-1.737 15.539-8.492 24.612-20.264 34.002l.022 139.158-.05 43.819c-.01 7.693-.303 18.074.234 25.563a32.36 32.36 0 0 0 6.948 17.783c11.558 14.63 25.833 13.257 42.177 13.235l30.093-.05c6.912-.011 17.815-.397 24.25 1.078a26.34 26.34 0 0 1 11.81 6.003c10.629 9.515 11.005 28.758.993 38.965-6.012 6.129-14.063 7.879-22.351 7.893l-40.928-.138c-7.834-.049-20.15.132-27.685-.628a88.36 88.36 0 0 1-53.105-25.611 88.48 88.48 0 0 1-23.366-44.065c-2.551-11.911-2.074-26.544-2.08-38.917l-.007-39.919.069-143.589c-3.667-2.405-8.454-7.033-11.14-10.541a50.23 50.23 0 0 1-9.621-37.674c2.131-15.067 9.025-23.554 20.733-32.249" />
    <path fill="#3f5be8" d="M219.39 470.515c-6.598-1.549-4.059-3.264-.083-.88z" />
    <path fill="#1c3dd9"
        d="M806.178 470.571c-.851-14.819-.169-36.433-.172-51.882l-.012-100.868.008-31.16c.008-22.419.468-43.886-26.925-51.003-7.786-2.023-16.845-1.059-24.907-1.162-15.445-.198-30.997.347-46.448.107-15.716-.278-26.887-13.729-25.798-29.084a25.96 25.96 0 0 1 9.289-18.055c8.763-7.384 18.131-7.214 28.934-6.743 19.064.833 40.084-1.172 58.959.534a88.1 88.1 0 0 1 59.881 31.878 89.1 89.1 0 0 1 18.335 39.85c2.376 12.863 1.709 34.442 1.711 48.394l.017 69.173-.002 65.04c-.002 8.819.475 25.536-.33 33.627l-.049 1.291c3.398 1.852 8.79 7.274 11.238 10.437a49.37 49.37 0 0 1 9.528 36.808c-2.088 15.218-8.716 23.972-20.437 32.964l.049 147.613-.029 39.09c-.011 10.728.355 25.175-1.867 35.51a89.9 89.9 0 0 1-23.041 43.605c-18.765 19.485-40.928 26.963-67.441 27.351a2693 2693 0 0 1-35.837.163c-8.213.046-19.947.87-27.892-.816-27.349-5.804-27.967-45.633-.673-52.221 5.778-1.395 11.906-.998 17.83-.993l32.455.054c15.668.03 31.37 1.808 43.396-10.405 12.012-12.198 10.095-28.236 10.098-43.885l-.01-40.719-.07-144.171c-15.332-12.477-22.41-26.594-20.216-46.924 1.562-14.478 9.215-24.563 20.428-33.398" />
    <path fill="#3f5be8"
        d="M858.669 470.508c-.906-.257-3.709-1.322-4.011-2.224l.043-.076c.483-.257 3.223.824 4.017 1.009z" />
    <path fill="#1c3dd9"
        d="m322.73 487.218 259.326.237 80.007-.068c13.112-.027 26.534-.303 39.618-.04 5.243.376 9.238.642 13.386 4.348 16.36 14.618 10.609 43.231-12.942 45.329q-45.07.399-90.14.172l-158.06.014-87.358.166c-14.414 0-29.225.177-43.606-.35-4.89-.474-9.155-.784-13.046-4.259-16.166-14.44-10.787-43.401 12.815-45.549" />
    <path fill="#1c3dd9"
        d="M320.446 428.123c10.688-.354 23.074-.107 33.855-.118l67.886.035 187.312.004 68.484-.007c5.994-.006 22.047-.617 27.51.295 5.733.956 9.177 10.423-.117 14.382-18.683.762-41.96.087-61.013.124l-131.538-.061-135.763.087c-18.065-.02-36.13-.008-54.194.109-3.599.023-7.172-2.055-8.265-5.592a6.87 6.87 0 0 1 .562-5.374c1.276-2.326 2.901-3.098 5.281-3.884" />
    <path fill="#1c3dd9"
        d="m573.373 581.25 86.692.101 27.512-.002c5.216.001 30.723-3.057 21.134 12.179-.806 1.28-3.553 2.464-5.153 2.453-7.877-.052-15.775-.063-23.668-.039l-56.627.066-169.697.099-134.733-.186c-2.869-2.017-4.39-3.753-4.679-7.434-.372-4.736 3.763-6.974 7.999-7.033 8.834-.122 17.694-.042 26.539-.042l54.124-.002z" />
    <path fill="#1c3dd9"
        d="M511.092 265.022c2.726-.054 4.773.073 6.674 2.259 4.933 5.672 35.255 32.814 36.433 37.727a7.79 7.79 0 0 1-1.191 6.177c-1.877 2.654-6.419 3.698-8.918 1.783-8.698-6.66-15.634-15.121-24.232-22.092-.296 28.63.566 57.448-.036 86.084-.088 4.169-1.958 5.862-5.426 7.691-4.949-.044-8.443-1.529-8.735-7.024-.512-8.058-.034-16.222-.225-24.288-.489-20.673.792-42.029-.375-62.644-7.327 6.646-13.912 13.894-21.431 20.403-6.418 5.556-14.705.714-12.42-7.03 2.265-3.158 8.132-9.614 10.955-11.885 7.542-6.068 21.264-23.523 28.927-27.161" />
    <path fill="#1c3dd9"
        d="M511.558 639.537c9.064 1.088 8.364 6.038 8.422 13.691.052 6.843.005 13.721.004 20.562l-.025 59.616c7.17-6.926 14.33-14.637 21.994-21.001 8.589-7.133 15.068 3.75 12.041 7.02-7.355 7.946-31.787 35.48-39.962 39.441-1.299-.064-3.671-.134-4.643-1.034-12.357-11.423-24.144-23.292-36.03-35.236-4.765-3.383-1.96-12.762 3.608-12.261 8.335.749 23.068 18.155 28.529 23.583-.467-29.26.016-59.846.026-89.188 1.95-3.08 2.71-3.769 6.036-5.193" />
    <path fill="#e4e3e6"
        d="M119.632 430.065c4.105-.409 9.024.86 9.183 5.249.188 5.211-12.81 14.485-16.251 18.1a85.1 85.1 0 0 0-23.348 61.669 86.78 86.78 0 0 0 24.785 57.728c6.358 6.512 21.852 13.508 9.995 21.593-9.228-.097-23.785-17.344-28.983-24.446a97.42 97.42 0 0 1-17.693-73.242c4.548-28.33 19.244-50.047 42.312-66.651" />
    <path fill="#e4e3e6"
        d="m900.383 430.074.462-.009c5.588-.146 8.907 3.157 12.922 6.472 49.204 40.616 46.336 122.58-8.196 156.998-1.073.262-2.222.514-3.327.488-2.803.068-5.78-3.274-5.343-6.093.874-5.642 9.28-11.084 13.35-14.874 33.908-31.576 33.889-86.767 2.177-119.872-2.205-2.301-4.667-4.46-7.125-6.48-3.382-2.796-9.37-5.307-8.963-10.551.303-2.986 1.746-4.388 4.043-6.079" />
    <path fill="#1c3dd9"
        d="M445.422 143.05c.706.054 1.464.085 2.163.226 5.292 1.065 16.127 25.737 19.895 31.318l.383.561c6.659-9.492 10.869-22.221 18.761-30.856 1.997-1.713 6.697-.721 7.306 1.804.584 2.422 1.082 9.435.573 11.811-1.633 7.634 3.651 37.606-3.767 40.803-1.409-.184-2.476-.784-3.422-1.851-2.181-2.46-1.044-25.945-1.034-29.992q-.042-4.309.017-8.617c-5.881 8.47-9.987 17.883-15.983 26.067-.97 1.325-1.996 1.854-3.523 1.997-4.198-1.878-13.04-21.696-16.855-27.791-.483 8.4-.248 16.817-.285 25.22-.012 2.697.346 7.257.186 9.72a6.16 6.16 0 0 1-.956 2.919c-2.339 3.604-7.038 2.654-7.209-1.813-.473-12.403-.137-24.876-.247-37.293-.031-3.451-.167-7.601.34-10.96 1.094-1.845 1.778-2.068 3.657-3.273" />
    <path fill="#1c3dd9"
        d="M455.769 860.394c3.997-7.186 26.404-54.676 26.724-19.66.049 5.303.511 38.955-.733 40.969a3.67 3.67 0 0 1-2.828 1.73 3.99 3.99 0 0 1-3.19-1.167c-2.491-2.532-1.423-24.516-1.415-29.339-.076-3.326.052-6.645.144-9.97-5.17 8.121-9.455 16.656-14.753 24.533-1.018 1.514-2.546 2.374-4.412 2.504-2.786-.899-4.149-2.87-5.575-5.361-4.193-7.328-8.225-14.714-12.582-21.95-.101 5.515.843 35.576-.402 38.13-.692 1.418-1.638 2.109-3.124 2.618-2.825-.441-4.017-2.598-4.055-5.367-.208-15.373-.292-30.829.076-46.197.036-1.494 1.712-2.531 2.804-3.338 4.399-.289 5.884 1.122 8.225 4.783 5.496 8.594 10.213 18.124 15.096 27.082" />
    <path fill="#1c3dd9"
        d="M518.506 827.989c1.785.246 3.243.526 4.635 1.801 2.881 2.637 21.713 46.688 21.529 50.112-.07 1.298-.534 2.022-1.387 2.941-6.367 2.055-8.093-7.282-10.208-12.216l-11.556.157-14.912.048c-1.732 3.348-6.956 19.057-11.709 9.549.004-1.847.561-3.491 1.286-5.198 3.686-8.677 7.48-17.125 11.096-25.859 2.539-6.133 4.849-12.719 7.617-18.744.624-1.357 2.248-1.987 3.609-2.591" />
    <path fill="#fbfafd"
        d="M519.411 838.335c1.802 1.605 9.599 22.136 11.189 25.672q-4.675.068-9.35.067-6.137.072-12.273-.04c3.242-8.155 6.787-17.814 10.434-25.699" />
    <path fill="#1c3dd9"
        d="M542.351 142.942c1.526.053 4.099.178 5.053 1.378 9.672 12.153 18.813 26.656 27.487 39.477-.005-5.354-.806-35.638.183-38.532 2.055-2.506 3.704-2.662 6.334-1.11 2.068 2.76 1.171 24.408 1.311 29.777.151 5.774.323 15.982-.271 21.673-.877 1.693-1.944 2.113-3.574 3.128-4.946-1.055-11.178-11.834-14.196-16.193a939 939 0 0 1-17.576-25.903c.136 8.491.077 17.058.098 25.557.015 5.849 1.966 13.524-3.874 16.955-1.037.027-1.514.26-2.295-.559-2.209-2.351-2.04-6.57-2.032-9.63.032-12.867-.057-25.755.201-38.62.08-4.009.207-4.696 3.151-7.398" />
    <path fill="#1c3dd9"
        d="M556.396 828.331c6.323.134 15.255 15.797 19.068 21.23 3.015-3.62 5.612-7.896 8.591-11.52 2.914-3.545 6.698-11.157 12.045-9.118 1.292 1.37 2.075 3.76.872 5.304-5.55 7.126-10.932 13.731-15.992 21.268 5.08 7.142 11.142 14.099 15.816 21.46 1.921 3.025.869 5.453-2.517 6.671q-.125-.048-.254-.093c-5.15-1.748-14.676-16.951-18.429-22.069-3.55 4.96-15.239 21.356-18.647 21.675-12.549 1.173 12.49-26.125 13.707-27.602-2.833-3.735-16.387-20.075-16.621-23.755.422-1.789 1.051-2.162 2.361-3.451" />
    <path fill="#1c3dd9"
        d="M515.417 142.989c2.634.097 5.819.859 5.908 4.271.416 16.006.342 32.141.033 48.152-.025 1.307-1.939 2.514-2.908 3.235-1.784-.051-3.819-.52-4.979-1.997-1.352-1.721-1.737-46.601-.795-50.779.338-1.501 1.535-2.114 2.741-2.882" />
</svg>