<svg viewBox="0 0 165 27" fill="none" xmlns="http://www.w3.org/2000/svg">
<path d="M5.32409 20.9746L0.0106978 1.54279H2.40172L6.46267 17.3691H6.65243L10.7893 1.54279H13.446L17.5828 17.3691H17.7726L21.8335 1.54279H24.2246L18.9112 20.9746H16.4822L12.1935 5.48988H12.0417L7.75306 20.9746H5.32409ZM30.6151 21.2782C29.2994 21.2782 28.145 20.9651 27.1519 20.3389C26.1651 19.7127 25.3934 18.8366 24.8367 17.7107C24.2864 16.5847 24.0113 15.269 24.0113 13.7636C24.0113 12.2455 24.2864 10.9203 24.8367 9.78803C25.3934 8.65577 26.1651 7.77653 27.1519 7.15031C28.145 6.52409 29.2994 6.21098 30.6151 6.21098C31.9307 6.21098 33.082 6.52409 34.0688 7.15031C35.0619 7.77653 35.8336 8.65577 36.3839 9.78803C36.9405 10.9203 37.2188 12.2455 37.2188 13.7636C37.2188 15.269 36.9405 16.5847 36.3839 17.7107C35.8336 18.8366 35.0619 19.7127 34.0688 20.3389C33.082 20.9651 31.9307 21.2782 30.6151 21.2782ZM30.6151 19.2667C31.6145 19.2667 32.4368 19.0106 33.082 18.4982C33.7272 17.9858 34.2048 17.3122 34.5147 16.4772C34.8246 15.6422 34.9796 14.7377 34.9796 13.7636C34.9796 12.7895 34.8246 11.8818 34.5147 11.0405C34.2048 10.1992 33.7272 9.5192 33.082 9.00051C32.4368 8.48182 31.6145 8.22248 30.6151 8.22248C29.6156 8.22248 28.7933 8.48182 28.1481 9.00051C27.5029 9.5192 27.0254 10.1992 26.7154 11.0405C26.4055 11.8818 26.2505 12.7895 26.2505 13.7636C26.2505 14.7377 26.4055 15.6422 26.7154 16.4772C27.0254 17.3122 27.5029 17.9858 28.1481 18.4982C28.7933 19.0106 29.6156 19.2667 30.6151 19.2667ZM42.6415 20.9746L38.2011 6.40075H40.5541L43.7042 17.5589H43.856L46.9681 6.40075H49.3592L52.4333 17.5209H52.5852L55.7352 6.40075H58.0883L53.6478 20.9746H51.4466L48.2585 9.77854H48.0308L44.8428 20.9746H42.6415Z" fill="white"/>
<path d="M70.6746 6.88464C70.586 6.05601 70.2128 5.41081 69.555 4.94905C68.9035 4.48729 68.0558 4.25641 67.0121 4.25641C66.2784 4.25641 65.649 4.36711 65.124 4.5885C64.599 4.80989 64.1973 5.11035 63.919 5.48988C63.6407 5.86941 63.4983 6.3027 63.492 6.78976C63.492 7.19459 63.5837 7.54565 63.7672 7.84295C63.9569 8.14025 64.2131 8.39327 64.5357 8.60201C64.8583 8.80442 65.2157 8.97521 65.6079 9.11437C66.0001 9.25353 66.3954 9.37055 66.7939 9.46543L68.6156 9.92086C69.3494 10.0917 70.0547 10.3225 70.7315 10.6135C71.4147 10.9045 72.0251 11.2714 72.5627 11.7141C73.1067 12.1569 73.5369 12.6914 73.8531 13.3176C74.1694 13.9439 74.3275 14.6776 74.3275 15.5189C74.3275 16.6575 74.0366 17.6601 73.4546 18.5267C72.8727 19.3869 72.0314 20.0606 70.9308 20.5476C69.8365 21.0284 68.5113 21.2687 66.9552 21.2687C65.4434 21.2687 64.1309 21.0347 63.0176 20.5666C61.9107 20.0985 61.0441 19.4154 60.4178 18.5172C59.798 17.619 59.4627 16.5246 59.4121 15.2343H62.8753C62.9259 15.9111 63.1346 16.474 63.5015 16.9232C63.8684 17.3723 64.346 17.7075 64.9342 17.9289C65.5288 18.1503 66.193 18.261 66.9267 18.261C67.6921 18.261 68.3626 18.1471 68.9382 17.9194C69.5202 17.6854 69.9756 17.3628 70.3045 16.9516C70.6335 16.5341 70.8011 16.0471 70.8074 15.4904C70.8011 14.9844 70.6524 14.5669 70.3615 14.238C70.0705 13.9027 69.6625 13.6244 69.1375 13.403C68.6188 13.1753 68.0116 12.9729 67.3158 12.7958L65.105 12.2265C63.5047 11.8153 62.2396 11.1923 61.3097 10.3573C60.3862 9.51604 59.9245 8.39959 59.9245 7.00799C59.9245 5.86308 60.2344 4.8605 60.8543 4.00023C61.4805 3.13997 62.3313 2.47263 63.4066 1.99822C64.482 1.51749 65.6996 1.27712 67.0596 1.27712C68.4385 1.27712 69.6467 1.51749 70.6841 1.99822C71.7278 2.47263 72.5469 3.13364 73.1415 3.98126C73.7361 4.82254 74.0429 5.79034 74.0619 6.88464H70.6746ZM79.9471 12.4352V20.9746H76.5124V1.54279H79.8712V8.87716H80.042C80.3836 8.05485 80.9117 7.40649 81.6265 6.93208C82.3476 6.45135 83.2648 6.21098 84.3781 6.21098C85.3902 6.21098 86.2726 6.42288 87.0253 6.84669C87.778 7.2705 88.36 7.89039 88.7711 8.70638C89.1886 9.52236 89.3973 10.5186 89.3973 11.6952V20.9746H85.9626V12.2265C85.9626 11.246 85.7096 10.4838 85.2036 9.93984C84.7039 9.38953 84.0017 9.11437 83.0972 9.11437C82.4899 9.11437 81.9459 9.2472 81.4652 9.51287C80.9908 9.77222 80.6176 10.1486 80.3456 10.642C80.0799 11.1354 79.9471 11.7331 79.9471 12.4352ZM92.0969 20.9746V6.40075H95.5317V20.9746H92.0969ZM93.8238 4.33232C93.2798 4.33232 92.8117 4.15204 92.4195 3.79149C92.0273 3.42462 91.8313 2.985 91.8313 2.47263C91.8313 1.95395 92.0273 1.51433 92.4195 1.15377C92.8117 0.786898 93.2798 0.60346 93.8238 0.60346C94.3741 0.60346 94.8422 0.786898 95.228 1.15377C95.6202 1.51433 95.8163 1.95395 95.8163 2.47263C95.8163 2.985 95.6202 3.42462 95.228 3.79149C94.8422 4.15204 94.3741 4.33232 93.8238 4.33232ZM98.2621 26.4398V6.40075H101.64V8.81075H101.839C102.016 8.45652 102.266 8.08016 102.589 7.68165C102.911 7.27682 103.348 6.93208 103.898 6.64744C104.448 6.35647 105.151 6.21098 106.004 6.21098C107.13 6.21098 108.146 6.49879 109.05 7.07441C109.961 7.6437 110.682 8.48815 111.213 9.60775C111.751 10.721 112.02 12.0873 112.02 13.7067C112.02 15.307 111.757 16.667 111.232 17.7866C110.707 18.9062 109.993 19.7601 109.088 20.3484C108.184 20.9367 107.159 21.2308 106.014 21.2308C105.179 21.2308 104.486 21.0916 103.936 20.8133C103.386 20.535 102.943 20.1997 102.608 19.8076C102.279 19.4091 102.023 19.0327 101.839 18.6785H101.697V26.4398H98.2621ZM101.63 13.6877C101.63 14.6302 101.763 15.4556 102.029 16.1641C102.301 16.8725 102.69 17.426 103.196 17.8245C103.708 18.2167 104.328 18.4128 105.056 18.4128C105.815 18.4128 106.45 18.2104 106.963 17.8056C107.475 17.3944 107.861 16.8346 108.12 16.1261C108.386 15.4114 108.519 14.5985 108.519 13.6877C108.519 12.7831 108.389 11.9798 108.13 11.2777C107.87 10.5756 107.485 10.0252 106.972 9.62673C106.46 9.22823 105.821 9.02897 105.056 9.02897C104.322 9.02897 103.699 9.2219 103.186 9.60775C102.674 9.99361 102.285 10.5344 102.019 11.2302C101.76 11.926 101.63 12.7452 101.63 13.6877ZM114.16 26.4398V6.40075H117.538V8.81075H117.737C117.914 8.45652 118.164 8.08016 118.486 7.68165C118.809 7.27682 119.245 6.93208 119.796 6.64744C120.346 6.35647 121.048 6.21098 121.902 6.21098C123.028 6.21098 124.043 6.49879 124.948 7.07441C125.859 7.6437 126.58 8.48815 127.111 9.60775C127.649 10.721 127.918 12.0873 127.918 13.7067C127.918 15.307 127.655 16.667 127.13 17.7866C126.605 18.9062 125.89 19.7601 124.986 20.3484C124.081 20.9367 123.056 21.2308 121.912 21.2308C121.077 21.2308 120.384 21.0916 119.834 20.8133C119.283 20.535 118.841 20.1997 118.505 19.8076C118.176 19.4091 117.92 19.0327 117.737 18.6785H117.594V26.4398H114.16ZM117.528 13.6877C117.528 14.6302 117.661 15.4556 117.927 16.1641C118.199 16.8725 118.588 17.426 119.094 17.8245C119.606 18.2167 120.226 18.4128 120.953 18.4128C121.712 18.4128 122.348 18.2104 122.86 17.8056C123.373 17.3944 123.759 16.8346 124.018 16.1261C124.284 15.4114 124.416 14.5985 124.416 13.6877C124.416 12.7831 124.287 11.9798 124.027 11.2777C123.768 10.5756 123.382 10.0252 122.87 9.62673C122.358 9.22823 121.719 9.02897 120.953 9.02897C120.22 9.02897 119.596 9.2219 119.084 9.60775C118.572 9.99361 118.183 10.5344 117.917 11.2302C117.658 11.926 117.528 12.7452 117.528 13.6877ZM130.057 20.9746V6.40075H133.492V20.9746H130.057ZM131.784 4.33232C131.24 4.33232 130.772 4.15204 130.38 3.79149C129.988 3.42462 129.792 2.985 129.792 2.47263C129.792 1.95395 129.988 1.51433 130.38 1.15377C130.772 0.786898 131.24 0.60346 131.784 0.60346C132.335 0.60346 132.803 0.786898 133.188 1.15377C133.581 1.51433 133.777 1.95395 133.777 2.47263C133.777 2.985 133.581 3.42462 133.188 3.79149C132.803 4.15204 132.335 4.33232 131.784 4.33232ZM139.657 12.4352V20.9746H136.223V6.40075H139.505V8.87716H139.676C140.011 8.06118 140.546 7.41282 141.28 6.93208C142.02 6.45135 142.934 6.21098 144.022 6.21098C145.028 6.21098 145.904 6.42605 146.65 6.85618C147.403 7.28631 147.985 7.90937 148.396 8.72535C148.813 9.54134 149.019 10.5313 149.013 11.6952V20.9746H145.578V12.2265C145.578 11.2524 145.325 10.4902 144.819 9.93984C144.319 9.38953 143.626 9.11437 142.741 9.11437C142.14 9.11437 141.605 9.2472 141.137 9.51287C140.676 9.77222 140.312 10.1486 140.046 10.642C139.787 11.1354 139.657 11.7331 139.657 12.4352ZM158.041 26.7434C156.807 26.7434 155.748 26.5758 154.862 26.2406C153.977 25.9116 153.265 25.4689 152.727 24.9122C152.19 24.3556 151.817 23.7388 151.608 23.062L154.701 22.3124C154.84 22.5971 155.043 22.8786 155.308 23.1569C155.574 23.4415 155.931 23.6756 156.38 23.859C156.836 24.0488 157.408 24.1437 158.098 24.1437C159.072 24.1437 159.878 23.9065 160.517 23.4321C161.156 22.964 161.476 22.1923 161.476 21.1169V18.3559H161.305C161.128 18.7101 160.868 19.0738 160.527 19.447C160.191 19.8202 159.746 20.1333 159.189 20.3863C158.639 20.6394 157.946 20.7659 157.111 20.7659C155.991 20.7659 154.976 20.5034 154.065 19.9783C153.161 19.447 152.44 18.6563 151.902 17.6063C151.371 16.5499 151.105 15.2279 151.105 13.6402C151.105 12.0399 151.371 10.6894 151.902 9.58878C152.44 8.48182 153.164 7.6437 154.075 7.07441C154.986 6.49879 156.001 6.21098 157.12 6.21098C157.974 6.21098 158.677 6.35647 159.227 6.64744C159.783 6.93208 160.226 7.27682 160.555 7.68165C160.884 8.08016 161.134 8.45652 161.305 8.81075H161.495V6.40075H164.882V21.2118C164.882 22.4579 164.585 23.489 163.99 24.305C163.395 25.1209 162.582 25.7314 161.551 26.1362C160.52 26.541 159.35 26.7434 158.041 26.7434ZM158.069 18.0712C158.797 18.0712 159.417 17.8941 159.929 17.5399C160.441 17.1857 160.83 16.6765 161.096 16.0123C161.362 15.3481 161.495 14.5511 161.495 13.6213C161.495 12.7041 161.362 11.9007 161.096 11.2113C160.837 10.5218 160.451 9.98728 159.938 9.60775C159.432 9.2219 158.809 9.02897 158.069 9.02897C157.304 9.02897 156.665 9.22823 156.153 9.62673C155.64 10.0252 155.254 10.5724 154.995 11.2682C154.736 11.9577 154.606 12.742 154.606 13.6213C154.606 14.5132 154.736 15.2943 154.995 15.9648C155.261 16.629 155.65 17.1477 156.162 17.5209C156.681 17.8878 157.317 18.0712 158.069 18.0712Z" fill="#0C54FC"/>
</svg>
