<svg width="545" height="88" viewBox="0 0 545 88" fill="none" xmlns="http://www.w3.org/2000/svg">
<rect width="88" height="88" rx="7.33333" fill="#052EEC"/>
<path fill-rule="evenodd" clip-rule="evenodd" d="M42.1667 19.2505C42.1667 17.7317 40.9355 16.5005 39.4167 16.5005H19.25C17.7312 16.5005 16.5 17.7317 16.5 19.2505V39.4172C16.5 40.9359 17.7312 42.1672 19.25 42.1672H39.4167C40.9355 42.1672 42.1667 40.9359 42.1667 39.4172V19.2505ZM31.1667 21.0838V27.5005H37.5833V31.1672H31.1667V37.5838H27.5V31.1672H21.0833V27.5005H27.5V21.0838H31.1667Z" fill="white"/>
<path fill-rule="evenodd" clip-rule="evenodd" d="M42.1667 48.5837C42.1667 47.065 40.9354 45.8337 39.4167 45.8337H19.25C17.7312 45.8337 16.5 47.065 16.5 48.5837V68.7504C16.5 70.2692 17.7312 71.5004 19.25 71.5004H39.4167C40.9354 71.5004 42.1667 70.2692 42.1667 68.7504V48.5837ZM37.5878 60.5004H21.0878V56.8337H37.5878V60.5004Z" fill="white"/>
<path fill-rule="evenodd" clip-rule="evenodd" d="M71.4999 19.2505C71.4999 17.7317 70.2687 16.5005 68.7499 16.5005H48.5833C47.0645 16.5005 45.8333 17.7317 45.8333 19.2505V39.4172C45.8333 40.9359 47.0645 42.1672 48.5833 42.1672H68.7499C70.2687 42.1672 71.4999 40.9359 71.4999 39.4172V19.2505ZM58.6831 27.8183L54.2788 34.3755H49.8622L56.4747 24.5303L56.6345 24.2922H60.7315L60.8913 24.5303L67.5038 34.3755H63.0872L58.6831 27.8183Z" fill="white"/>
<path fill-rule="evenodd" clip-rule="evenodd" d="M71.4999 48.5837C71.4999 47.065 70.2687 45.8337 68.7499 45.8337H48.5833C47.0645 45.8337 45.8333 47.065 45.8333 48.5837V68.7504C45.8333 70.2692 47.0645 71.5004 48.5833 71.5004H68.7499C70.2687 71.5004 71.4999 70.2692 71.4999 68.7504V48.5837ZM58.6831 60.1826L54.2788 53.6254H49.8622L56.4747 63.4706L56.6345 63.7087H60.7315L60.8913 63.4706L67.5038 53.6254H63.0872L58.6831 60.1826Z" fill="white"/>
<path d="M507.299 70.8116L521.216 51.1974L507.875 32.4485H516.385L525.831 46.2217L534.989 32.4485H543.715L530.518 51.3416L544.292 70.8116H535.782L525.903 56.173L515.952 70.8116H507.299Z" fill="#101010"/>
<path d="M481.206 71.6758C477.216 71.6758 474.019 70.7624 471.615 68.9356C469.26 67.1088 468.082 64.5368 468.082 61.2197C468.082 57.9026 469.068 55.3306 471.039 53.5038C473.058 51.6289 476.158 50.2829 480.341 49.4656L493.537 46.9417C493.537 43.9611 492.84 41.7497 491.446 40.3075C490.052 38.8172 487.985 38.072 485.244 38.072C482.793 38.072 480.87 38.6249 479.476 39.7306C478.081 40.7882 477.12 42.3747 476.591 44.4899L468.731 43.9851C469.452 40.1392 471.231 37.1106 474.067 34.8991C476.952 32.6877 480.677 31.582 485.244 31.582C490.436 31.582 494.379 32.9762 497.071 35.7645C499.811 38.5047 501.181 42.3747 501.181 47.3744V62.3014C501.181 63.2148 501.325 63.8638 501.614 64.2484C501.95 64.5849 502.479 64.7532 503.2 64.7532H504.57V70.8105C504.33 70.8586 503.945 70.9066 503.416 70.9547C502.888 71.0028 502.335 71.0268 501.758 71.0268C500.123 71.0268 498.705 70.7624 497.503 70.2336C496.35 69.7048 495.484 68.8394 494.907 67.6376C494.33 66.3877 494.042 64.7291 494.042 62.6619L494.835 63.0225C494.451 64.7051 493.609 66.1954 492.311 67.4934C491.061 68.7914 489.451 69.825 487.48 70.5941C485.557 71.3153 483.466 71.6758 481.206 71.6758ZM482.432 65.6185C484.74 65.6185 486.711 65.1858 488.345 64.3205C489.98 63.4071 491.254 62.1571 492.167 60.5707C493.081 58.9843 493.537 57.1815 493.537 55.1624V52.7106L482.288 54.8739C479.98 55.3066 478.346 56.0037 477.384 56.9651C476.471 57.8786 476.014 59.0564 476.014 60.4986C476.014 62.1331 476.567 63.4071 477.673 64.3205C478.827 65.1858 480.413 65.6185 482.432 65.6185Z" fill="#101010"/>
<path d="M412.24 70.8105V19.6116H422.913L438.128 61.6524L453.344 19.6116H464.016V70.8105H456.228V33.3127L442.455 70.7384H433.802L420.028 33.3127V70.8105H412.24Z" fill="#101010"/>
<path d="M357.52 70.8105V32.4474H364.514L364.803 42.6871L363.865 42.1824C364.298 39.6825 365.115 37.6634 366.317 36.125C367.519 34.5867 368.985 33.4569 370.716 32.7358C372.447 31.9666 374.321 31.582 376.341 31.582C379.225 31.582 381.605 32.231 383.48 33.529C385.403 34.779 386.845 36.5096 387.806 38.721C388.816 40.8844 389.321 43.3602 389.321 46.1485V70.8105H381.677V48.456C381.677 46.1966 381.436 44.2976 380.956 42.7593C380.475 41.2209 379.682 40.0431 378.576 39.2258C377.47 38.4085 376.028 37.9999 374.249 37.9999C371.557 37.9999 369.37 38.8893 367.687 40.668C366.005 42.4468 365.163 45.0428 365.163 48.456V70.8105H357.52Z" fill="#101010"/>
<path d="M342.87 70.8112V32.448H350.514V70.8112H342.87ZM342.726 26.8955V19.2517H350.658V26.8955H342.726Z" fill="#101010"/>
<path d="M284.464 70.8105V19.6116H295.137L310.352 61.6524L325.567 19.6116H336.24V70.8105H328.452V33.3127L314.679 70.7384H306.025L292.252 33.3127V70.8105H284.464Z" fill="#101010"/>
<path d="M231.326 81.6283V75.3546H236.013C237.311 75.3546 238.272 75.1623 238.897 74.7777C239.522 74.3931 240.003 73.7441 240.339 72.8307L241.565 69.6578H239.186L225.34 32.4485H233.417L243.945 62.5909L253.968 32.4485H262.117L246.829 75.2825C246.06 77.4939 244.906 79.1044 243.368 80.1139C241.878 81.1235 239.787 81.6283 237.094 81.6283H231.326Z" fill="#101010"/>
<path d="M209.094 71.6758C205.489 71.6758 202.436 71.123 199.936 70.0173C197.484 68.9116 195.585 67.3972 194.239 65.4743C192.893 63.5032 192.124 61.2437 191.932 58.6958L199.792 58.3353C200.176 60.4505 201.09 62.1331 202.532 63.383C203.974 64.633 206.162 65.2579 209.094 65.2579C211.498 65.2579 213.397 64.8733 214.791 64.1041C216.185 63.335 216.882 62.1091 216.882 60.4265C216.882 59.5131 216.642 58.7439 216.161 58.1189C215.728 57.4459 214.863 56.893 213.565 56.4604C212.267 55.9796 210.344 55.5229 207.796 55.0903C203.998 54.3691 201.018 53.5279 198.854 52.5664C196.691 51.6049 195.153 50.379 194.239 48.8887C193.326 47.3984 192.869 45.5956 192.869 43.4804C192.869 39.971 194.167 37.1106 196.763 34.8991C199.407 32.6877 203.205 31.582 208.157 31.582C211.474 31.582 214.262 32.1589 216.522 33.3127C218.781 34.4184 220.536 35.9327 221.786 37.8557C223.084 39.7306 223.901 41.8458 224.237 44.2015L216.377 44.6341C216.137 43.2881 215.656 42.1343 214.935 41.1728C214.262 40.1633 213.349 39.3941 212.195 38.8653C211.041 38.2884 209.671 37.9999 208.085 37.9999C205.633 37.9999 203.806 38.4807 202.604 39.4421C201.402 40.4036 200.801 41.6536 200.801 43.1919C200.801 44.3457 201.066 45.2831 201.595 46.0043C202.171 46.7254 203.085 47.3263 204.335 47.807C205.585 48.2397 207.243 48.6243 209.31 48.9608C213.301 49.6338 216.425 50.4751 218.685 51.4847C220.944 52.4462 222.531 53.648 223.444 55.0903C224.358 56.5325 224.814 58.2872 224.814 60.3544C224.814 62.7581 224.141 64.8012 222.795 66.4838C221.449 68.1664 219.598 69.4644 217.243 70.3778C214.887 71.2431 212.171 71.6758 209.094 71.6758Z" fill="#101010"/>
<path d="M165.469 71.6758C161.479 71.6758 158.282 70.7624 155.878 68.9356C153.523 67.1088 152.345 64.5368 152.345 61.2197C152.345 57.9026 153.33 55.3306 155.301 53.5038C157.32 51.6289 160.421 50.2829 164.604 49.4656L177.8 46.9417C177.8 43.9611 177.103 41.7497 175.709 40.3075C174.315 38.8172 172.247 38.072 169.507 38.072C167.055 38.072 165.132 38.6249 163.738 39.7306C162.344 40.7882 161.383 42.3747 160.854 44.4899L152.994 43.9851C153.715 40.1392 155.494 37.1106 158.33 34.8991C161.214 32.6877 164.94 31.582 169.507 31.582C174.699 31.582 178.641 32.9762 181.333 35.7645C184.074 38.5047 185.444 42.3747 185.444 47.3744V62.3014C185.444 63.2148 185.588 63.8638 185.876 64.2484C186.213 64.5849 186.742 64.7532 187.463 64.7532H188.833V70.8105C188.593 70.8586 188.208 70.9066 187.679 70.9547C187.15 71.0028 186.598 71.0268 186.021 71.0268C184.386 71.0268 182.968 70.7624 181.766 70.2336C180.612 69.7048 179.747 68.8394 179.17 67.6376C178.593 66.3877 178.305 64.7291 178.305 62.6619L179.098 63.0225C178.713 64.7051 177.872 66.1954 176.574 67.4934C175.324 68.7914 173.714 69.825 171.743 70.5941C169.82 71.3153 167.728 71.6758 165.469 71.6758ZM166.695 65.6185C169.002 65.6185 170.973 65.1858 172.608 64.3205C174.242 63.4071 175.516 62.1571 176.43 60.5707C177.343 58.9843 177.8 57.1815 177.8 55.1624V52.7106L166.551 54.8739C164.243 55.3066 162.609 56.0037 161.647 56.9651C160.734 57.8786 160.277 59.0564 160.277 60.4986C160.277 62.1331 160.83 63.4071 161.936 64.3205C163.089 65.1858 164.676 65.6185 166.695 65.6185Z" fill="#101010"/>
<path d="M113.721 70.8105V19.6116H147.037V26.7506H121.509V41.6776H146.171V48.6002H121.509V63.6715H147.614V70.8105H113.721Z" fill="#101010"/>
</svg>
