<svg width="88" height="88" viewBox="0 0 88 88" fill="none" xmlns="http://www.w3.org/2000/svg">
    <rect width="88" height="88" fill="#052EEC" />
    <path fill-rule="evenodd" clip-rule="evenodd"
        d="M42.1667 19.2505C42.1667 17.7317 40.9355 16.5005 39.4167 16.5005H19.25C17.7312 16.5005 16.5 17.7317 16.5 19.2505V39.4172C16.5 40.9359 17.7312 42.1672 19.25 42.1672H39.4167C40.9355 42.1672 42.1667 40.9359 42.1667 39.4172V19.2505ZM31.1667 21.0838V27.5005H37.5833V31.1672H31.1667V37.5838H27.5V31.1672H21.0833V27.5005H27.5V21.0838H31.1667Z"
        fill="white" />
    <path fill-rule="evenodd" clip-rule="evenodd"
        d="M42.1667 48.5837C42.1667 47.065 40.9354 45.8337 39.4167 45.8337H19.25C17.7312 45.8337 16.5 47.065 16.5 48.5837V68.7504C16.5 70.2692 17.7312 71.5004 19.25 71.5004H39.4167C40.9354 71.5004 42.1667 70.2692 42.1667 68.7504V48.5837ZM37.5878 60.5004H21.0878V56.8337H37.5878V60.5004Z"
        fill="white" />
    <path fill-rule="evenodd" clip-rule="evenodd"
        d="M71.4999 19.2505C71.4999 17.7317 70.2687 16.5005 68.7499 16.5005H48.5833C47.0645 16.5005 45.8333 17.7317 45.8333 19.2505V39.4172C45.8333 40.9359 47.0645 42.1672 48.5833 42.1672H68.7499C70.2687 42.1672 71.4999 40.9359 71.4999 39.4172V19.2505ZM58.6831 27.8183L54.2788 34.3755H49.8622L56.4747 24.5303L56.6345 24.2922H60.7315L60.8913 24.5303L67.5038 34.3755H63.0872L58.6831 27.8183Z"
        fill="white" />
    <path fill-rule="evenodd" clip-rule="evenodd"
        d="M71.4999 48.5837C71.4999 47.065 70.2687 45.8337 68.7499 45.8337H48.5833C47.0645 45.8337 45.8333 47.065 45.8333 48.5837V68.7504C45.8333 70.2692 47.0645 71.5004 48.5833 71.5004H68.7499C70.2687 71.5004 71.4999 70.2692 71.4999 68.7504V48.5837ZM58.6831 60.1826L54.2788 53.6254H49.8622L56.4747 63.4706L56.6345 63.7087H60.7315L60.8913 63.4706L67.5038 53.6254H63.0872L58.6831 60.1826Z"
        fill="white" />
</svg>