<svg viewBox="0 0 30 30" fill="none" xmlns="http://www.w3.org/2000/svg">
<path fill-rule="evenodd" clip-rule="evenodd" d="M28.9502 12.2067L22.3167 5.57321C21.9772 5.23371 21.5168 5.04297 21.0366 5.04297H18.1658C16.916 5.04297 15.9029 6.05612 15.9029 7.3059V16.3576C15.9029 16.8575 15.4976 17.2628 14.9977 17.2628H2.77788C1.5281 17.2628 0.514952 18.2759 0.514952 19.5257V21.5624C0.514952 22.8121 1.5281 23.8253 2.77788 23.8253H3.37305C3.87547 21.8733 5.64746 20.4309 7.75633 20.4309C9.8652 20.4309 11.6372 21.8733 12.1396 23.8253H17.4032C17.9056 21.8733 19.6776 20.4309 21.7865 20.4309C23.8954 20.4309 25.6674 21.8733 26.1698 23.8253H27.2175C28.4673 23.8253 29.4805 22.8121 29.4805 21.5624V13.4868C29.4805 13.0067 29.2897 12.5462 28.9502 12.2067Z" fill="#0C54FC"/>
<path d="M18.6208 24.9572C18.6208 26.7069 20.0392 28.1253 21.7889 28.1253C23.5386 28.1253 24.957 26.7069 24.957 24.9572C24.957 23.2075 23.5386 21.7891 21.7889 21.7891C20.0392 21.7891 18.6208 23.2075 18.6208 24.9572Z" fill="#0C54FC"/>
<path d="M4.58957 24.9572C4.58957 26.7069 6.00798 28.1253 7.75768 28.1253C9.50737 28.1253 10.9258 26.7069 10.9258 24.9572C10.9258 23.2075 9.50737 21.7891 7.75768 21.7891C6.00798 21.7891 4.58957 23.2075 4.58957 24.9572Z" fill="#0C54FC"/>
<path d="M20.402 7.73204C20.6671 7.46692 21.0968 7.46692 21.3619 7.73204L26.3404 12.7105L26.3872 12.7622C26.6045 13.0288 26.5889 13.422 26.3404 13.6705C26.0919 13.919 25.6988 13.9346 25.4321 13.7173L25.3804 13.6705L20.402 8.69202C20.1368 8.4269 20.1368 7.99716 20.402 7.73204Z" fill="white"/>
<path d="M0.519531 4.13793C0.519531 2.88815 1.53268 1.875 2.78246 1.875H11.8342C13.084 1.875 14.0971 2.88815 14.0971 4.13793V13.1897C14.0971 14.4394 13.084 15.4526 11.8342 15.4526H2.78246C1.53268 15.4526 0.519531 14.4394 0.519531 13.1897V4.13793Z" fill="#0C54FC"/>
<path d="M2.32812 4.59072C2.32812 4.09081 2.73338 3.68555 3.2333 3.68555H11.3798C11.8798 3.68555 12.285 4.09081 12.285 4.59072V5.94848C12.285 6.44839 11.8798 6.85365 11.3798 6.85365H3.2333C2.73338 6.85365 2.32812 6.44839 2.32812 5.94848V4.59072Z" fill="white"/>
<path d="M2.32812 9.56923C2.32812 9.06932 2.73338 8.66406 3.2333 8.66406C3.73321 8.66406 4.13847 9.06932 4.13847 9.56923C4.13847 10.0691 3.73321 10.4744 3.2333 10.4744C2.73338 10.4744 2.32812 10.0691 2.32812 9.56923Z" fill="white"/>
<path d="M6.39844 9.56923C6.39844 9.06932 6.8037 8.66406 7.30361 8.66406C7.80352 8.66406 8.20878 9.06932 8.20878 9.56923C8.20878 10.0691 7.80352 10.4744 7.30361 10.4744C6.8037 10.4744 6.39844 10.0691 6.39844 9.56923Z" fill="white"/>
<path d="M10.4766 9.56923C10.4766 9.06932 10.8818 8.66406 11.3817 8.66406C11.8816 8.66406 12.2869 9.06932 12.2869 9.56923C12.2869 10.0691 11.8816 10.4744 11.3817 10.4744C10.8818 10.4744 10.4766 10.0691 10.4766 9.56923Z" fill="white"/>
<path d="M2.32812 12.7372C2.32812 12.2373 2.73338 11.832 3.2333 11.832C3.73321 11.832 4.13847 12.2373 4.13847 12.7372C4.13847 13.2371 3.73321 13.6424 3.2333 13.6424C2.73338 13.6424 2.32812 13.2371 2.32812 12.7372Z" fill="white"/>
<path d="M6.39844 12.7372C6.39844 12.2373 6.8037 11.832 7.30361 11.832C7.80352 11.832 8.20878 12.2373 8.20878 12.7372C8.20878 13.2371 7.80352 13.6424 7.30361 13.6424C6.8037 13.6424 6.39844 13.2371 6.39844 12.7372Z" fill="white"/>
<path d="M10.4766 12.7372C10.4766 12.2373 10.8818 11.832 11.3817 11.832C11.8816 11.832 12.2869 12.2373 12.2869 12.7372C12.2869 13.2371 11.8816 13.6424 11.3817 13.6424C10.8818 13.6424 10.4766 13.2371 10.4766 12.7372Z" fill="white"/>
</svg>
