<svg xmlns="http://www.w3.org/2000/svg" width="512" height="512" viewBox="0 0 512 512">
    <path fill="#fff" d="M0 0h512v512H0z" />
    <path fill="#4451f8"
        d="M154.448 252.03c1.916-10.816 6.18-18.776 15.17-25.393 15.8-11.63 38.096-7.129 49.118 8.781 3.794 5.478 5.249 10.18 6.593 16.646l61.698-.072c1.992-10.734 6.543-19.359 15.743-25.692a35.45 35.45 0 0 1 26.392-5.654c14.795 2.736 27.686 16.326 28.9 31.405l36.442-.028c5.583-.004 13.269-.252 18.635.032-2.333.462-13.863.231-16.988.23l-38.164.04c.018 2.705.094 5.684.026 8.363 3.204-.013 9.276-.203 12.262.101-2.915.303-9.095.156-12.239.166-4.938 26.536-32.546 39.878-55.54 24.757-8.908-5.858-13.087-14.87-15.397-24.964l-58.063.039c-1.093.117-2.663.111-3.798.143-3.15 14.309-9.957 23.673-24.003 28.625-18.965 6.685-39.196-3.879-45.245-22.832-.584-1.829-.847-4.012-1.427-5.666l-.118-.332c-26.445.493-53.517-.136-80.135.204 3.683 3.884 12.724 10.949 15.121 14.516.374.556.59 1.186.614 1.858.045 1.291-.665 2.538-1.578 3.406-.85.808-1.999 1.387-3.193 1.336-1.02-.045-1.737-.572-2.543-1.143-4.457-3.156-8.619-7.294-12.725-10.913-3.903-3.44-8.316-6.876-11.853-10.684-.884-.952-1.252-2.079-1.076-3.389.287-2.14 10.202-10.168 12.276-12.081.532 1.193.459 1.232.248 2.635 1.118 1.274 4.008 4.246 4.706 5.536l.124.037c26.502.056 53.587-.34 80.017-.013" />
    <path fill="#061ce1"
        d="M69.354 243.835c.531 1.193.457 1.232.246 2.635 1.12 1.274 4.009 4.246 4.707 5.536l.124.037c1.895.788 72.575.08 80.066.262-.189 2.118-.446 6.34-.053 8.42-26.444.493-53.516-.136-80.134.204 3.683 3.884 12.724 10.949 15.121 14.516.374.556.59 1.186.614 1.858.045 1.291-.665 2.538-1.578 3.406-.85.808-1.999 1.387-3.193 1.336-1.02-.045-1.737-.572-2.543-1.143-4.457-3.156-8.619-7.294-12.725-10.913-3.903-3.44-8.316-6.876-11.853-10.684-.884-.952-1.252-2.079-1.076-3.389.287-2.14 10.202-10.168 12.276-12.081" />
    <path fill="#02044e"
        d="M69.6 246.47c1.12 1.274 4.009 4.246 4.707 5.536-1.676 1.987-2.294 2.827-4.472 4.425 1.451 1.463 2.94 2.77 4.383 4.228-1.379 2.265-2.353 3.319-4.033 5.38-1.659-2.773-3.758-7.03-4.722-10.109 1.305-3.225 2.902-6.15 4.138-9.46" />
    <path fill="#061ce1"
        d="m225.455 252.335 61.541-.129c-.023 2.371-.16 6.286.103 8.542l-58.063.039c-1.392-.096-2.359-.14-3.766-.117.282-2.518.229-5.761.184-8.336" />
    <path fill="#4451f8"
        d="m201.494 298.032.432.082c.219 2.739.28 6.658.168 9.357-.745 17.928 13.615 31.38 31.284 30.873 6.703-.193 11.975 6.439 10.957 13.046-.456 2.961-1.508 5.148-3.999 7.047-4.852 3.675-13.458 2.038-19.026 1.175-23.49-4.434-40.672-25.243-42.073-49.018-.244-4.132-.192-8.393-.247-12.541 8.682 2.483 13.873 2.525 22.504-.021" />
    <path fill="#4451f8"
        d="M276.966 151.541a29 29 0 0 1 1.784-.048c27.628.084 50.534 18.724 54.313 46.798.642 4.766.368 10.418.36 15.287-3.474-1.159-5.241-1.573-8.861-1.923-4.672-.732-9.538.399-13.878 2.053.025-6.717.49-13.238-1.763-19.635a30.27 30.27 0 0 0-23.888-19.811c-3.863-.578-7.552.116-11.174-1.706a9.93 9.93 0 0 1-5.09-5.969c-2.193-6.92 1.253-13.114 8.197-15.046" />
    <path fill="#061ce1"
        d="M207.493 157.865c8.608-4.241 13.295-5.503 22.951-6.227 10.282-.77 16.202 5.75 13.137 15.791-2.011 6.589-9.762 6.595-15.182 6.835-10.406 1.161-18.82 7.307-23.517 16.652-.916 2.254-1.505 3.725-2.111 6.07-1.085 4.802-.75 11.92-.776 17.004-8.755-2.918-13.888-3.037-22.732-.265l.008-6.876c-.07-19.948 10.055-39.772 28.222-48.984" />
    <path fill="#02044e"
        d="M207.493 157.865c8.608-4.241 13.295-5.503 22.951-6.227 10.282-.77 16.202 5.75 13.137 15.791-2.011 6.589-9.762 6.595-15.182 6.835-10.406 1.161-18.82 7.307-23.517 16.652l-.2-.332c.437-2.001.47-4.135.848-6.199 1.688-9.202 2.077-17.18 1.963-26.52" />
    <path fill="#02044e"
        d="M179.272 206.849c.828-2.799 16.403-9.13 19.732-9.306 1.132-.06 2.56-.5 3.767-.557-1.085 4.802-.75 11.92-.776 17.004-8.755-2.918-13.888-3.037-22.732-.265z" />
    <path fill="#02044e"
        d="M310.42 298.318c9.861 2.468 12.627 3.254 22.864.186q.027 1.584.033 3.169c.015 3.964.092 7.536-.385 11.485a55.3 55.3 0 0 1-15.478 32.138c-7.386 7.4-15.7 11.594-25.733 14.108-6.163 1.087-13.528 2.3-19.137-.866-4.669-3.29-5.795-10.36-2.726-15.187 4.152-6.534 10.914-3.997 17.428-5.504l.902-.215c6.77-2.049 10.77-4.425 15.367-9.817 6.87-8.06 6.88-15.378 6.878-25.21-.062-1.616-.076-2.658-.012-4.287" />
    <path fill="#061ce1"
        d="M303.555 327.816c1.031 2.098-1.176 8.03-1.923 10.397-1.537 4.872-3.732 9.289-6.075 13.787-.934 1.791-3.324 5.772-3.836 7.404-6.163 1.087-13.528 2.3-19.137-.866-4.669-3.29-5.795-10.36-2.726-15.187 4.152-6.534 10.914-3.997 17.428-5.504l.902-.215c6.77-2.049 10.77-4.425 15.367-9.817" />
    <path fill="#02044e"
        d="M272.585 358.538c-4.67-3.29-5.796-10.36-2.727-15.187 4.152-6.534 10.914-3.997 17.428-5.504l.902-.215c-.5 3.841-5.187 9.584-7.39 12.887-1.97 2.952-5.461 5.757-8.214 8.019" />
    <path fill="#061ce1"
        d="M310.42 298.318c9.861 2.468 12.627 3.254 22.864.186q.027 1.584.033 3.169c-3.425 1.88-4.163 2.876-8.44 3.635-5.499.976-9.385.392-14.147-2.525l-.297-.178c-.062-1.616-.076-2.658-.012-4.287" />
    <path fill="#061ce1"
        d="M438.927 251.834c-4.775-4.819-10.942-8.901-15.405-14.106-1.842-2.148.755-7.323 3.89-6.826 3.082.569 7.039 4.814 9.23 6.815l9.341 8.507c2.8 2.547 5.915 5.057 8.565 7.705 3.683 3.682-3.055 8.07-5.576 10.308l-11.315 10.01c-2.618 2.311-5.071 4.801-7.743 7.042-.902.757-1.746 1.012-2.931.848a5.08 5.08 0 0 1-3.368-2.043 4.38 4.38 0 0 1-.759-3.34c.549-3.098 12.673-11.975 15.697-15.925-6.252-.247-13.08-.103-19.375-.093l-31.845.057c-4.925.008-12.363.252-17.058-.004-2.986-.304-9.058-.114-12.261-.101.067-2.68-.009-5.658-.027-8.362l38.164-.041c3.125.001 14.655.232 16.988-.23 8.036-.028 17.921.184 25.788-.221" />
    <path fill="#02044e"
        d="M443.159 246.261c.168.174 3.882 8.05 4.398 9.12-.983 3.295-2.812 7.708-4.142 10.99-.654-.796-1.225-1.549-1.851-2.361-1.055-1.228-1.59-1.907-2.747-3.073 1.91-1.586 3.114-2.904 4.76-4.758-1.45-1.398-3.598-2.805-4.762-4.3 1.623-2.595 2.21-3.36 4.344-5.618" />
    <path fill="#061ce1"
        d="M85.49 230.548c1.807.73 3.106 1.101 4.038 3.071.4.844.403 3.137-.035 3.758-3.394 4.804-11.553 10.305-15.061 14.666l-.126-.037c-.697-1.29-3.587-4.262-4.706-5.536.212-1.403.285-1.442-.246-2.635 4.161-3.594 11.393-11.609 16.136-13.287" />
</svg>