<?xml version="1.0" encoding="utf-8"?>
<svg xmlns="http://www.w3.org/2000/svg" xmlns:xlink="http://www.w3.org/1999/xlink" width="1024"
    height="1024" viewBox="0 0 1024 1024">
    <path fill="white" d="M0 0L1024 0L1024 1024L0 1024L0 0Z" />
    <path fill="#1D2FA7"
        d="M480.285 238.145C486.15 237.224 541.205 237.596 547.315 238.815C553.35 240.035 559.05 242.545 564.025 246.173C583.63 260.189 583.461 278.46 583.483 300.058L583.465 334.566L583.421 452.138L583.403 648.8L583.448 711.389C583.457 722.198 583.864 733.564 583.274 744.316C582.113 765.488 566.027 782.309 545.495 785.514C540.223 786.206 523.087 786.1 516.867 785.989C506.566 785.806 486.551 786.824 477.099 785.072C471.348 784.049 465.871 781.845 461.015 778.598C451.143 771.903 444.367 761.528 442.205 749.796C441.258 744.469 441.455 734.134 441.426 728.315L441.322 693.716L441.622 562.088C442.006 499.114 441.986 436.139 441.562 373.165L441.499 310.714C441.49 301.947 441.01 287.254 441.615 278.779C442.156 270.662 444.915 262.851 449.591 256.195C457.144 245.531 467.642 240.227 480.285 238.145Z" />
    <path fill="#1D2FA7"
        d="M793.137 493.712C793.56 494.022 794.277 494.389 794.727 494.637C793.743 503.54 794.47 524.929 794.42 534.713C805.177 530.374 816.945 526.308 827.882 522.195L828.479 625.711C828.52 630.434 828.159 653.352 829.117 656.463C846.161 639.78 863.904 620.713 881.005 604.623C881.02 613.804 881.164 623.289 881.041 632.443C864.41 648.875 845.211 667.642 829.218 684.587C829.893 690.517 828.733 710.178 830.13 713.083C822.753 720.777 815.308 728.406 807.796 735.969C803.799 739.982 798.103 745.343 794.439 749.459C792.669 768.438 784.12 781.46 764.277 785.693C762.596 786.052 757.578 785.645 756.444 786.248C755.297 786.312 754.149 786.353 753.001 786.369L701.335 786.436C680.647 786.459 658.5 789.692 642.539 773.872C635.891 767.222 631.435 758.697 629.769 749.442C628.636 743.035 628.973 730.129 628.973 723.126L628.988 680.033L628.928 510.601C628.715 508.955 627.864 495.951 629.087 495.855L628.912 496.345L629.351 496.19C629.55 496.603 629.61 497.079 629.702 497.527C635.831 510.853 643.718 524.627 655.365 533.911C656.215 529.289 655.996 523.019 656.546 517.692C664.515 525.548 671.571 533.815 679.254 541.979C681.132 543.974 685.256 548.259 686.644 550.316C702.494 556.52 722.852 553.661 738.279 547.478C762.927 537.472 782.637 518.154 793.137 493.712Z" />
    <path fill="#D2D8F1"
        d="M794.42 534.713C805.177 530.374 816.945 526.308 827.882 522.195L828.479 625.711C828.52 630.434 828.159 653.352 829.117 656.463C846.161 639.78 863.904 620.713 881.005 604.623C881.02 613.804 881.164 623.289 881.041 632.443C864.41 648.875 845.211 667.642 829.218 684.587C829.893 690.517 828.733 710.178 830.13 713.083C822.753 720.777 815.308 728.406 807.796 735.969C803.799 739.982 798.103 745.343 794.439 749.459C793.828 727.705 794.412 703.624 794.386 681.629L794.42 534.713Z" />
    <path fill="#283BC1"
        d="M881.005 604.623C881.02 613.804 881.164 623.289 881.041 632.443C864.41 648.875 845.211 667.642 829.218 684.587L820.737 692.947L806.567 678.789C813.532 671.24 821.835 664.165 829.117 656.463C846.161 639.78 863.904 620.713 881.005 604.623Z" />
    <path fill="#D2D8F1"
        d="M656.546 517.692C664.515 525.548 671.571 533.815 679.254 541.979C681.132 543.974 685.256 548.259 686.644 550.316C676.466 548.481 663.439 540.167 655.365 533.911C656.215 529.289 655.996 523.019 656.546 517.692Z" />
    <path fill="#696BB6"
        d="M628.928 510.601C628.715 508.955 627.864 495.951 629.087 495.855L628.912 496.345L629.351 496.19C629.55 496.603 629.61 497.079 629.702 497.527C628.529 499.873 629.264 506.828 628.928 510.601Z" />
    <path fill="white"
        d="M695.709 633.563L717.61 633.595L717.544 696.133C725.637 688.506 734.457 679.255 742.404 671.301C747.744 676.336 753.192 681.973 758.369 687.191C743.484 701.33 728.222 717.263 713.611 731.869L707.717 737.958C702.144 731.707 694.705 724.696 688.662 718.699L656.049 686.173C661.235 681.145 666.227 675.95 671.413 670.916C678.462 677.231 689.274 688.479 695.835 695.489C696.31 675.633 695.682 653.66 695.709 633.563Z" />
    <path fill="white"
        d="M665.887 580.12C667.882 580.079 669.877 580.069 671.872 580.09C674.396 587.18 677.235 593.73 679.879 600.738C682.87 593.91 685.805 587.057 688.683 580.18C690.609 580.15 692.536 580.169 694.462 580.239C694.44 586.94 694.494 593.703 694.363 600.398C694.2 608.76 696.092 607.917 688.643 607.93C687.93 603.283 688.966 598.378 688.096 593.964C686.773 596.491 683.226 606.536 681.493 607.891C681.308 608.035 678.214 608.054 678.029 607.703C676.191 604.215 672.494 594.56 671.092 591.192L671.237 607.768C669.304 607.9 667.837 607.81 665.91 607.735L665.887 580.12Z" />
    <path fill="#283BC1"
        d="M688.096 593.964C688.243 593.658 688.308 593.021 688.703 592.882C689.319 593.262 688.828 606.353 688.643 607.93C687.93 603.283 688.966 598.378 688.096 593.964Z" />
    <path fill="white"
        d="M708.848 580.144C710.581 580.225 712.315 580.281 714.049 580.312C717.697 589.19 720.902 598.516 724.475 607.534L724.638 607.952L718.964 607.925L718.773 607.425C717.833 605.023 717.703 601.62 715.125 601.645C712.19 601.678 709.255 601.638 706.322 601.525C705.492 603.668 704.667 605.769 703.892 607.938C702.032 607.939 700.154 607.871 698.277 607.867C701.303 600.984 707.08 587.419 708.848 580.144Z" />
    <path fill="#1D2FA7"
        d="M711.623 587.429C712.214 588.774 715.087 595.881 714.845 596.87C714.451 597.197 713.602 597.185 713.119 597.242C712.161 597.194 709.209 597.233 708.541 596.889C708.258 596.232 711.206 588.654 711.623 587.429Z" />
    <path fill="white"
        d="M745.176 580.341C751.272 580.539 750.847 579.924 747.596 585.392C746.205 587.732 744.605 589.991 743.194 592.314L742.105 594.105C743.131 595.786 751.054 606.857 751.04 607.688C750.81 608 750.531 607.983 750.097 608.098C748.943 608.064 745.701 608.329 745.145 607.449C743.313 604.544 741.283 601.055 739.362 598.216C737.04 601.467 735.494 604.372 733.715 607.944C731.549 607.919 729.384 607.918 727.218 607.941C729.931 603.664 733.458 598.278 736.449 594.164C734.771 591.694 728.841 582.946 728.082 580.659C728.991 580.598 732.22 580.392 732.786 580.537C734.039 580.858 737.96 588.641 738.711 589.972L745.176 580.341Z" />
    <path fill="#1D2FA7"
        d="M263.613 239.858C280.868 235.478 303.298 238.247 321.271 237.636C333.449 237.222 346.863 237.548 359.001 238.333C374.753 240.535 390.355 254.581 393.874 270.079C396.056 279.693 395.505 290.278 395.493 299.918L395.448 330.415L395.396 460.403L395.231 496.256C395.148 502.955 394.723 513.699 395.241 520.22L393.3 520.471C386.303 501.26 373.909 483.671 356.094 473.19C350.788 475.262 342.176 475.572 335.986 477.498C306.786 486.583 284.88 503.899 271.448 531.664C270.88 532.842 270.32 534.023 269.768 535.208C263.564 525.118 257.224 515.111 250.75 505.192C249.095 502.694 246.68 499.861 245.251 497.613C239.952 506.146 237.262 511.908 233.474 521.167L233.228 521.915L232.728 522.03C232.224 518.785 232.505 507.885 232.516 504.007L232.508 467.786C232.485 425.882 232.107 383.078 232.594 341.223C232.171 333.175 232.46 318.807 232.527 310.584C232.62 299.184 231.514 279.74 234.173 269.237C235.152 266.974 235.794 262.333 236.996 259.939C240.687 253.008 246.864 246.684 253.991 243.308C256.167 242.278 262.493 240.941 263.613 239.858Z" />
    <path fill="#D2D8F1"
        d="M245.251 497.613C260.092 478.984 273.583 467.014 297.921 461.955C318.063 457.768 338.897 461.646 356.094 473.19C350.788 475.262 342.176 475.572 335.986 477.498C306.786 486.583 284.88 503.899 271.448 531.664C270.88 532.842 270.32 534.023 269.768 535.208C263.564 525.118 257.224 515.111 250.75 505.192C249.095 502.694 246.68 499.861 245.251 497.613Z" />
    <path fill="#283BC1"
        d="M232.594 341.223C233.377 345.408 233.162 355.133 233.153 359.712L233.072 389.467L233.128 489.298C233.113 494.779 232.433 517.698 233.474 521.167L233.228 521.915L232.728 522.03C232.224 518.785 232.505 507.885 232.516 504.007L232.508 467.786C232.485 425.882 232.107 383.078 232.594 341.223Z" />
    <path fill="white"
        d="M317.384 281.821C318.985 282.495 364.359 328.458 369.377 333.428C363.802 338.578 358.484 344 353.443 349.674C345.181 341.467 337.021 333.159 328.965 324.75C328.695 344.142 328.911 363.921 328.933 383.341L319.75 383.322L306.622 383.309L306.547 324.817C299.954 330.397 288.805 342.628 282.115 349.264L266.714 333.33C282.989 316.275 300.757 298.754 317.384 281.821Z" />
    <path fill="white"
        d="M304.16 402.778C306.301 402.704 308.145 402.68 310.287 402.709C310.294 405.463 310.519 430.348 309.777 430.743C308.718 431.307 306.002 430.883 304.778 430.881C303.972 426.068 304.964 420.743 304.22 415.806C301.771 420.581 299.975 425.715 297.447 430.398C297.133 431.078 294.067 430.65 293.987 430.523C291.888 427.211 289.713 420.98 288.093 417.457L287.32 415.762C286.578 420.549 287.56 426.877 286.78 430.52C285.766 430.534 282.63 430.951 281.849 430.214C281.426 429.814 281.301 405.826 281.608 403.671C281.628 403.534 281.645 403.304 281.773 403.214C282.301 402.843 283.11 402.928 283.715 402.916C284.63 402.897 286.32 402.584 287.074 403.272C289.066 405.091 294.391 420.26 295.646 423.701C298.528 417.442 301.608 409.262 304.16 402.778Z" />
    <path fill="#283BC1"
        d="M286.78 430.52C286.527 428.779 286.171 415.483 286.834 414.919C287.174 415.081 287.171 415.46 287.32 415.762C286.578 420.549 287.56 426.877 286.78 430.52Z" />
    <path fill="#696BB6"
        d="M304.22 415.806C304.245 415.251 304.189 415.415 304.38 415.002L304.6 414.986C304.984 415.355 304.996 416.012 305.002 416.495C305.011 417.83 304.997 419.165 304.963 420.499C304.889 424.074 305.101 427.298 304.778 430.881C303.972 426.068 304.964 420.743 304.22 415.806Z" />
    <path fill="white"
        d="M327.072 402.712C327.577 402.703 330.703 402.566 330.795 402.656C335.212 407.018 340.7 416.027 344.04 421.236C344.13 415.35 343.692 408.85 344.282 403.075C344.329 402.61 349.304 402.637 349.268 403.253C348.819 410.794 350.577 423.985 349.323 431.014C343.254 430.702 344.798 430.904 340.964 425.379C337.98 421.077 335.037 416.577 331.929 412.356C331.852 415.746 332.264 426.875 331.561 430.535C331.455 431.087 328.786 430.792 328.752 430.805C328.609 430.861 327.302 430.799 327.276 430.534C326.782 425.613 326.926 406.599 327.072 402.712Z" />
    <path fill="white"
        d="M315.821 402.798C317.008 402.791 319.772 402.39 320.691 403.216C321.215 403.687 321.05 428.075 320.963 430.88C319.495 430.883 315.989 431.474 315.939 429.999C315.66 421.737 315.677 410.88 315.821 402.798Z" />
    <path fill="#1D2FA7"
        d="M629.176 465.635C628.25 424.647 629.049 380.82 629.038 339.66L628.977 300.913C628.965 293.213 628.598 281.816 629.841 274.612C631.301 266.482 635.046 258.936 640.638 252.856C660.682 230.957 686.387 239.488 712.861 237.816C719.444 237.4 726.82 237.968 733.37 237.686C756.743 236.68 766.639 237.979 783.909 254.171C802.665 256.59 823.919 276.797 826.01 295.763C826.926 304.075 826.755 312.582 826.729 320.951L826.675 356.646L826.881 494.472C821.352 490.293 811.391 476.365 806.243 470.62C803.076 467.087 798.24 461.757 795.305 458.213L794.414 459.082C794.271 462.024 794.773 476.677 794.242 478.284C793.449 478.107 792.917 476.18 792.713 475.555C784.397 455.856 772.691 441.089 754.963 429.133C754.691 429.242 754.419 429.35 754.147 429.459C718.924 433.003 685.835 452.576 670.231 485.147C669.344 486.997 667.905 489.821 666.809 491.541C661.839 483.99 656.918 476.405 652.048 468.788C649.338 464.587 645.02 457.515 641.784 453.948C637.404 460.639 634.199 467.871 630.832 475.106C630.671 475.54 630.359 476.988 629.742 477.125C628.759 476.551 629.097 467.039 629.176 465.635Z" />
    <path fill="#D2D8F1"
        d="M783.909 254.171C802.665 256.59 823.919 276.797 826.01 295.763C826.926 304.075 826.755 312.582 826.729 320.951L826.675 356.646L826.881 494.472C821.352 490.293 811.391 476.365 806.243 470.62C803.076 467.087 798.24 461.757 795.305 458.213L794.414 459.082L793.992 459.089C794.92 454.695 794.382 442.508 794.375 437.713L794.292 391.46L794.365 317.123C794.377 311.553 794.33 305.718 794.399 300.167C794.635 281.153 795.453 270.078 783.909 254.171Z" />
    <path fill="#D2D8F1"
        d="M641.784 453.948C651.939 437.401 674.655 421.254 693.512 417.228C716.939 412.226 735.246 416.982 754.963 429.133C754.691 429.242 754.419 429.35 754.147 429.459C718.924 433.003 685.835 452.576 670.231 485.147C669.344 486.997 667.905 489.821 666.809 491.541C661.839 483.99 656.918 476.405 652.048 468.788C649.338 464.587 645.02 457.515 641.784 453.948Z" />
    <path fill="#283BC1"
        d="M793.992 459.089L794.414 459.082C794.271 462.024 794.773 476.677 794.242 478.284C793.449 478.107 792.917 476.18 792.713 475.555C794.858 472.827 793.483 463.437 793.992 459.089Z" />
    <path fill="#283BC1"
        d="M629.176 465.635C631.042 467.833 628.06 472.223 630.832 475.106C630.671 475.54 630.359 476.988 629.742 477.125C628.759 476.551 629.097 467.039 629.176 465.635Z" />
    <path fill="#1D2FA7"
        d="M393.867 546.022L394.459 544.752C394.992 545.348 395.397 647.73 394.891 658.284C395.25 666.734 394.965 677.702 394.98 686.335L395.049 737.383C395.003 752.327 393.015 762.297 381.932 773.333C376.707 778.536 369.694 782.72 362.45 784.376C350.337 787.144 335.116 785.803 322.573 786.059C308.969 786.515 295.755 785.676 282.122 786.202C259.856 787.062 238.988 774.609 233.8 752.082C231.885 743.768 232.612 731.063 232.612 722.176L232.605 682.174C232.599 636.694 232.008 589.38 232.767 544.041C238.609 560.21 246.837 574.117 260.346 585.016C260.671 580.813 260.279 579.155 259.851 575.123C263.966 579.195 278.017 593.858 280.343 598.458C281.512 599.076 282.695 599.668 283.891 600.234C300.271 607.9 324.269 607.708 340.96 601.342C368.211 590.948 382.173 571.343 393.867 546.022Z" />
    <path fill="#D2D8F1"
        d="M259.851 575.123C263.966 579.195 278.017 593.858 280.343 598.458C275.941 596.792 263.418 588.497 260.346 585.016C260.671 580.813 260.279 579.155 259.851 575.123Z" />
    <path fill="#283BC1"
        d="M393.867 546.022L394.459 544.752C394.992 545.348 395.397 647.73 394.891 658.284C394.1 655.051 394.359 637.838 394.356 633.734L394.397 569.105C394.406 565.468 395.025 547.862 393.867 546.022Z" />
    <path fill="#1D2FA7"
        d="M181.859 145.626C187.172 144.935 205.148 145.382 211.481 145.364L278.465 145.352L278.478 186.577L184.892 186.503L184.927 228.25L184.707 284.85C171.265 284.873 157.823 284.782 144.383 284.575L144.223 218.079C144.192 209.328 143.554 189.068 144.829 181.455C145.929 175.089 148.439 169.05 152.174 163.78C159.658 153.123 169.283 147.874 181.859 145.626Z" />
    <path fill="#1D2FA7"
        d="M746.499 145.42L809.685 145.424C830.435 145.419 852.846 141.954 868.734 157.992C874.365 163.668 878.352 170.765 880.271 178.527C882.298 186.909 881.588 208.793 881.576 218.146L881.425 284.582C868.084 284.902 854.738 284.902 841.398 284.583L841.172 186.51C809.713 186.212 778.1 186.773 746.638 186.335C746.247 173.116 746.506 158.726 746.499 145.42Z" />
    <path fill="#1D2FA7"
        d="M144.214 739.551L184.974 739.583L184.992 838.41L278.466 838.309C278.481 851.866 278.416 865.422 278.271 878.977L197.499 879.264C181.554 879.315 169.094 879.104 156.996 866.915C151.096 860.893 147.031 853.317 145.276 845.07C143.597 837.316 144.178 816.158 144.183 807.334L144.214 739.551Z" />
    <path fill="#1D2FA7"
        d="M841.388 739.476L881.543 739.539L881.513 824.494C881.534 841.296 881.474 854.037 868.535 867.158C854.634 881.254 836.854 879.155 818.712 879.138L786.871 879.1L746.671 878.986L746.603 838.342L841.36 838.343L841.388 739.476Z" />
    <path fill="#283BC1"
        d="M830.13 713.083C847.064 695.291 864.193 678.938 881.101 661.598L881.006 690.732C863.983 707.874 846.197 726.44 829.013 743.198C829.232 758.625 826.772 770.232 815.709 781.738C807.032 790.866 795.076 796.161 782.484 796.454C780.029 796.5 778.498 796.444 776.051 795.963C767.168 804.388 758.208 813.966 749.515 822.709L693.306 878.923C683.865 879.097 674.122 878.964 664.658 878.952C694.938 848.559 725.941 816.933 756.548 787.045L756.444 786.248C757.578 785.645 762.596 786.052 764.277 785.693C784.12 781.46 792.669 768.438 794.439 749.459C798.103 745.343 803.799 739.982 807.796 735.969C815.308 728.406 822.753 720.777 830.13 713.083Z" />
    <path fill="#D2D8F1"
        d="M776.051 795.963C780.051 791.905 784.107 787.89 788.184 783.908C801.943 770.471 814.991 756.374 829.013 743.198C829.232 758.625 826.772 770.232 815.709 781.738C807.032 790.866 795.076 796.161 782.484 796.454C780.029 796.5 778.498 796.444 776.051 795.963Z" />
    <path fill="#283BC1"
        d="M328.914 145.319C336.1 144.699 349.922 145.097 357.684 145.097C340.685 160.664 319.708 182.944 303.12 199.748L278.306 224.802C273.643 229.488 267.833 234.997 263.613 239.858C262.493 240.941 256.167 242.278 253.991 243.308C246.864 246.684 240.687 253.008 236.996 259.939C235.794 262.333 235.152 266.974 234.173 269.237C229.902 271.339 183.898 319.291 177.783 325.519C167.104 336.304 156.357 347.02 145.542 357.668L145.679 328.935C166.83 308.915 188.822 285.592 209.562 264.773L328.914 145.319Z" />
    <path fill="#283BC1"
        d="M207.482 324.02C212.188 328.792 216.901 333.468 221.327 338.502C215.19 346.012 204.221 355.666 197.255 362.685C182.348 377.706 166.252 392.68 151.893 408.169C149.402 410.717 147.182 412.825 144.548 415.228L144.465 386.847C164.498 365.946 187.471 345.298 207.482 324.02Z" />
    <path fill="#283BC1"
        d="M705.335 467.745C717.486 465.767 728.93 474.047 730.851 486.208C732.773 498.368 724.44 509.773 712.27 511.638C700.181 513.49 688.867 505.224 686.958 493.143C685.05 481.062 693.263 469.71 705.335 467.745Z" />
    <path fill="#283BC1"
        d="M311.635 509.409C323.673 507.32 335.127 515.381 337.226 527.417C339.324 539.454 331.274 550.915 319.239 553.023C307.19 555.134 295.712 547.072 293.612 535.021C291.511 522.97 299.583 511.5 311.635 509.409Z" />
    <path fill="#283BC1"
        d="M395.241 520.22C395.224 520.814 395.45 523.028 394.768 523.16C394.17 522.765 393.602 521.156 393.3 520.471L395.241 520.22Z" />
    <path fill="#283BC1"
        d="M793.137 493.712C793.18 493.631 793.815 491.984 794.306 492.255C794.659 492.817 794.643 493.982 794.727 494.637C794.277 494.389 793.56 494.022 793.137 493.712Z" />
</svg>